<?xml version="1.0" encoding="UTF-8" standalone="no"?>
<svg
   xmlns:dc="http://purl.org/dc/elements/1.1/"
   xmlns:cc="http://creativecommons.org/ns#"
   xmlns:rdf="http://www.w3.org/1999/02/22-rdf-syntax-ns#"
   xmlns:svg="http://www.w3.org/2000/svg"
   xmlns="http://www.w3.org/2000/svg"
   xmlns:sodipodi="http://sodipodi.sourceforge.net/DTD/sodipodi-0.dtd"
   xmlns:inkscape="http://www.inkscape.org/namespaces/inkscape"
   inkscape:export-ydpi="300"
   inkscape:export-xdpi="300"
   inkscape:export-filename="C:\Users\kiera\Documents\GitHub\passwordgen\images\shorticons\advanced.png"
   inkscape:version="1.0 (4035a4fb49, 2020-05-01)"
   sodipodi:docname="advanced.svg"
   viewBox="0 0 61.439999 61.439999"
   height="61.439999"
   width="61.439999"
   id="svg830"
   version="1.1">
  <metadata
     id="metadata836">
    <rdf:RDF>
      <cc:Work
         rdf:about="">
        <dc:format>image/svg+xml</dc:format>
        <dc:type
           rdf:resource="http://purl.org/dc/dcmitype/StillImage" />
        <dc:title></dc:title>
      </cc:Work>
    </rdf:RDF>
  </metadata>
  <defs
     id="defs834" />
  <sodipodi:namedview
     inkscape:current-layer="g838"
     inkscape:window-maximized="1"
     inkscape:window-y="-9"
     inkscape:window-x="-9"
     inkscape:cy="30.564681"
     inkscape:cx="28.354735"
     inkscape:zoom="12.190748"
     showgrid="false"
     id="namedview832"
     inkscape:window-height="1001"
     inkscape:window-width="1920"
     inkscape:pageshadow="2"
     inkscape:pageopacity="0"
     guidetolerance="10"
     gridtolerance="10"
     objecttolerance="10"
     borderopacity="1"
     bordercolor="#666666"
     pagecolor="#ffffff" />
  <g
     id="g838"
     inkscape:label="Image"
     inkscape:groupmode="layer">
    <path
       inkscape:export-ydpi="300"
       inkscape:export-xdpi="300"
       sodipodi:nodetypes="ssssssssss"
       id="path844"
       d="M 25.28,58.256793 C 14.223193,55.906511 5.9224223,48.102674 3.2197001,37.517158 c -0.9249997,-3.622867 -0.9249997,-9.971451 0,-13.594316 C 5.4247324,15.286583 11.88825,7.9040981 20,4.7567583 25.513669,2.6174678 30.565947,2.1048896 35.679999,3.1659461 46.886393,5.4910329 55.038313,13.124067 57.961865,24.029525 c 1.017513,3.795541 1.017513,9.585409 0,13.380948 -2.923552,10.905459 -11.075472,18.538492 -22.281866,20.86358 -3.568675,0.740423 -6.861213,0.73496 -10.399999,-0.01725 z"
       style="fill:#f5f5f5;fill-opacity:1;stroke-width:0.32" />
    <path
       id="path842"
       d="m 30.183327,44.927705 c -0.272807,-0.710925 0.579412,-1.181783 1.134536,-0.626842 0.240825,0.240746 0.340327,0.595539 0.221115,0.788429 -0.321931,0.520893 -1.130754,0.424486 -1.355651,-0.161587 z m 1.816672,0.192294 c 0,-0.176 0.324,-0.317795 0.72,-0.315101 0.582221,0.004 0.628148,0.06426 0.24,0.315101 -0.620403,0.400935 -0.96,0.400935 -0.96,0 z M 26.4,44.799999 c -0.521731,-0.224195 -0.540005,-0.279174 -0.09889,-0.297507 0.297613,-0.01237 0.630111,0.121507 0.738886,0.297507 0.227412,0.367962 0.216292,0.367962 -0.64,0 z m 1.38,0.101405 c 0.231,-0.09244 0.507,-0.08107 0.613333,0.02525 0.106333,0.106333 -0.08267,0.181965 -0.42,0.16807 -0.372782,-0.01536 -0.448608,-0.09118 -0.193333,-0.193331 z m 0.92,-0.30807 c -0.452965,-0.452967 -0.196651,-1.073335 0.443463,-1.073335 0.447348,0 0.629762,0.173776 0.56,0.533482 -0.114222,0.588953 -0.66048,0.882835 -1.003463,0.539853 z m -3.9,-0.433335 c -0.108774,-0.176 -0.05377,-0.32 0.122229,-0.32 0.176,0 0.408997,0.144 0.517771,0.32 0.108774,0.176 0.05377,0.32 -0.12223,0.32 -0.176,0 -0.408996,-0.144 -0.51777,-0.32 z m 8.479999,-0.301113 c 0,-0.861661 0.605357,-1.150675 1.188573,-0.56746 0.583216,0.583216 0.294202,1.188573 -0.567459,1.188573 -0.401485,0 -0.621114,-0.219629 -0.621114,-0.621113 z m 2.08,0.301113 c 0.108775,-0.176 0.513274,-0.317795 0.898887,-0.315101 0.569993,0.004 0.611347,0.06291 0.221113,0.315101 -0.630438,0.407421 -1.371798,0.407421 -1.12,0 z M 26.935322,43.629058 C 27.070186,42.928767 28,42.829695 28,43.515615 c 0,0.261591 -0.265078,0.526669 -0.589061,0.589063 -0.427646,0.08235 -0.557974,-0.04797 -0.475617,-0.47562 z m -3.131034,-0.521504 c 0.01964,-0.389155 0.239712,-0.707555 0.489045,-0.707555 0.710986,0 0.77106,0.721613 0.0904,1.085891 -0.523415,0.280122 -0.609831,0.2237 -0.579445,-0.378336 z m 1.618479,0.384564 c -0.329766,-0.533575 0.411907,-1.145443 0.85335,-0.704 0.369256,0.369254 0.138151,1.051881 -0.356117,1.051881 -0.155226,0 -0.378981,-0.156547 -0.497233,-0.347881 z m 5.937232,-0.273232 c 0,-0.806784 0.548667,-1.133053 1.114996,-0.66304 0.582649,0.483555 0.265171,1.284153 -0.509232,1.284153 -0.386291,0 -0.605764,-0.225033 -0.605764,-0.621113 z m 5.334327,-0.152708 c -0.242221,-0.631215 0.620637,-1.494073 1.251853,-1.251852 0.720873,0.276624 0.427558,1.526592 -0.38545,1.642592 -0.384288,0.05483 -0.760538,-0.114855 -0.866403,-0.39074 z M 22.613333,42.986665 C 22.24513,42.618463 22.380296,42.239999 22.88,42.239999 c 0.264,0 0.48,0.216 0.48,0.48 0,0.499703 -0.378464,0.634871 -0.746667,0.266666 z M 29.44,42.559999 c 0,-0.526828 0.165857,-0.660956 0.72,-0.582256 0.396,0.05624 0.719999,0.318256 0.719999,0.582256 0,0.264 -0.323999,0.526016 -0.719999,0.582256 -0.554143,0.0787 -0.72,-0.05543 -0.72,-0.582256 z m -1.492534,-0.18151 c -0.266707,-0.695027 0.410379,-1.348643 0.895024,-0.864 0.409611,0.409613 0.155856,1.36551 -0.36249,1.36551 -0.187048,0 -0.426688,-0.22568 -0.532534,-0.50151 z m 6.825868,0.288176 c -0.406013,-0.40601 -0.211178,-1.407581 0.312941,-1.608701 0.7219,-0.277021 1.519561,0.804835 1.02912,1.395783 -0.381028,0.45911 -0.997991,0.556991 -1.342061,0.212918 z M 21.6,42.239999 c -0.108774,-0.176 -0.04527,-0.32 0.141114,-0.32 0.186387,0 0.338886,0.144 0.338886,0.32 0,0.176 -0.0635,0.32 -0.141115,0.32 -0.07761,0 -0.230111,-0.144 -0.338885,-0.32 z m 4.694562,-0.09426 c -0.409888,-0.493884 0.04448,-1.360073 0.549661,-1.047856 0.425941,0.263248 0.469336,1.034157 0.07203,1.279703 -0.156058,0.09645 -0.435821,-0.0079 -0.621696,-0.231847 z m -1.615528,-0.33871 c -0.388979,-0.468691 -0.168191,-0.847034 0.494299,-0.847034 0.476704,0 0.584122,0.824916 0.142925,1.097591 -0.156058,0.09645 -0.442809,-0.01629 -0.637224,-0.250557 z m 7.956482,-0.05243 c -0.351488,-0.423517 -0.333475,-0.593783 0.109687,-1.036944 0.623116,-0.623117 1.302547,-0.175015 1.124806,0.741837 -0.149626,0.771833 -0.724746,0.909315 -1.234493,0.295107 z M 23.2,41.599999 c -0.233345,-0.377558 0.06933,-0.96 0.498885,-0.96 0.165613,0 0.301115,0.288 0.301115,0.64 0,0.674906 -0.465563,0.861133 -0.8,0.32 z m -2.866335,-0.297888 c -0.236653,-0.382912 0.36532,-0.762313 0.791554,-0.498886 0.357875,0.221178 0.122934,0.796774 -0.325219,0.796774 -0.155226,0 -0.365077,-0.134051 -0.466335,-0.297888 z M 21.76,41.093334 c 0,-0.565098 0.688883,-0.466685 0.886666,0.126665 0.06967,0.208999 -0.101333,0.38 -0.38,0.38 -0.278666,0 -0.506666,-0.228 -0.506666,-0.506665 z m 8.756541,0.0288 c -0.110837,-0.288832 -0.04808,-0.678595 0.139459,-0.866135 0.487554,-0.487555 1.411331,-0.04195 1.283975,0.619357 -0.141857,0.736602 -1.167254,0.914378 -1.423434,0.246784 z m 7.687791,0.02032 c -0.318614,-0.830295 0.127962,-1.516541 0.914237,-1.40489 0.528874,0.0751 0.72143,0.315971 0.72143,0.902445 0,0.586474 -0.192556,0.827344 -0.72143,0.902445 -0.43273,0.06145 -0.798589,-0.09862 -0.914237,-0.4 z m -9.399981,-0.179767 c -0.580814,-0.35896 -0.132277,-1.354252 0.551006,-1.222662 0.306511,0.05903 0.602016,0.339552 0.656677,0.623386 0.116988,0.607468 -0.610405,0.968416 -1.207683,0.599276 z m 11.835648,0.05538 c 0,-0.386736 0.607104,-0.837629 0.829024,-0.615712 0.08054,0.08054 -0.07304,0.328595 -0.341289,0.551225 -0.304125,0.2524 -0.487735,0.276679 -0.487735,0.06449 z M 26.99953,40.489929 c -0.09693,-0.252605 -0.08687,-0.603888 0.02236,-0.78063 0.261574,-0.423236 1.138108,-0.07612 1.138108,0.4507 0,0.601207 -0.952459,0.871997 -1.16047,0.32993 z m 9.053804,0.256736 c -0.391626,-0.391622 -0.21944,-1.40441 0.270739,-1.592509 0.775347,-0.297526 1.48449,0.477175 1.097942,1.199447 -0.32528,0.607792 -0.969068,0.792678 -1.368681,0.393062 z M 25.113718,40.309836 c -0.124275,-0.201081 -0.07538,-0.516176 0.108654,-0.700208 0.430048,-0.430048 1.432685,-0.05494 1.257721,0.470541 -0.178113,0.534938 -1.083639,0.687142 -1.366375,0.229667 z m -5.740053,-0.287725 c -0.236653,-0.382912 0.36532,-0.762313 0.791555,-0.498886 0.357874,0.221178 0.122933,0.796774 -0.32522,0.796774 -0.155226,0 -0.365077,-0.134051 -0.466335,-0.297888 z M 20.8,39.839999 c 0,-0.293334 0.1548,-0.481734 0.344,-0.418665 0.1892,0.06307 0.344,0.251465 0.344,0.418665 0,0.1672 -0.1548,0.3556 -0.344,0.418666 -0.1892,0.06307 -0.344,-0.125331 -0.344,-0.418666 z m 1.28,0 c 0,-0.264 0.216,-0.48 0.48,-0.48 0.264,0 0.48,0.216 0.48,0.48 0,0.264 -0.216,0.48 -0.48,0.48 -0.264,0 -0.48,-0.216 -0.48,-0.48 z m 1.502033,0.275367 c -0.298638,-0.298637 0.06225,-0.755367 0.596852,-0.755367 0.253613,0 0.461115,0.216 0.461115,0.48 0,0.481994 -0.675518,0.657818 -1.057967,0.275367 z m 10.142763,-0.251715 c -0.291136,-0.758685 0.1208,-1.524909 0.754237,-1.402919 0.354246,0.06822 0.560966,0.399607 0.560966,0.899267 0,0.912202 -1.010009,1.29898 -1.315203,0.503652 z m -2.25733,-0.685162 c -0.105846,-0.27583 -0.03901,-0.65495 0.148533,-0.84249 0.497744,-0.497744 1.344,-0.06079 1.344,0.693959 0,0.789187 -1.200832,0.908691 -1.492533,0.148531 z m -13.022833,-0.04052 c -0.360379,-0.36038 -0.219484,-0.737968 0.275367,-0.737968 0.264,0 0.48,0.135501 0.48,0.301114 0,0.403514 -0.499709,0.692512 -0.755367,0.436854 z M 29.556541,38.88214 c -0.110837,-0.288838 -0.06248,-0.664201 0.107459,-0.834141 0.447815,-0.447814 1.424904,0.02173 1.308034,0.628589 -0.135646,0.704355 -1.166633,0.854067 -1.415493,0.205552 z m 10.136274,0.01331 c -0.334908,-0.403539 -0.334908,-0.587347 0,-0.990886 0.641584,-0.773072 1.747184,-0.459559 1.747184,0.495433 0,0.954992 -1.1056,1.268506 -1.747184,0.495444 z m 2.55736,0.08344 c -0.0056,-0.297612 0.143405,-0.636032 0.331114,-0.752044 0.564025,-0.348586 0.643104,0.01888 0.145581,0.676518 -0.409591,0.541398 -0.467757,0.550614 -0.476695,0.07553 z M 19.52,38.559999 c 0,-0.329587 0.209727,-0.486537 0.56,-0.419081 0.674509,0.129897 0.631979,0.697817 -0.0631,0.842544 C 19.726988,39.04383 19.52,38.867433 19.52,38.559999 Z m 1.6,-0.16 c 0,-0.412444 0.162051,-0.639315 0.4,-0.56 0.22,0.07334 0.4,0.325335 0.4,0.56 0,0.234666 -0.18,0.486666 -0.4,0.56 -0.237949,0.07932 -0.4,-0.147555 -0.4,-0.56 z m 1.41413,0.278141 c -0.272743,-0.441305 0.353674,-1.049974 0.797987,-0.775373 0.191335,0.118253 0.347883,0.335098 0.347883,0.481882 0,0.42568 -0.918739,0.660998 -1.14587,0.293491 z M 24.22,38.833334 c -0.452965,-0.452967 -0.196651,-1.073335 0.443463,-1.073335 0.447348,0 0.629762,0.173776 0.56,0.533482 -0.114221,0.588954 -0.66048,0.882835 -1.003463,0.539853 z m 1.579631,-0.285447 c -0.109431,-0.285174 0.01978,-0.572169 0.307273,-0.682492 0.597555,-0.229303 1.251432,0.339526 0.950328,0.826723 -0.31401,0.508077 -1.039202,0.424905 -1.257601,-0.144231 z M 27.68,38.719999 c -0.267853,-0.433395 0.09358,-0.96 0.658885,-0.96 0.253613,0 0.461115,0.288 0.461115,0.64 0,0.6625 -0.772004,0.883072 -1.12,0.32 z m 9.564332,-0.457555 c -0.318614,-0.830294 0.127962,-1.516541 0.914237,-1.404889 0.528874,0.0751 0.72143,0.315971 0.72143,0.902444 0,0.586474 -0.192556,0.827344 -0.72143,0.902445 -0.43273,0.06145 -0.798589,-0.09862 -0.914237,-0.4 z m -2.300333,-0.246445 c -0.787926,-0.787926 -0.01219,-2.061625 1.01544,-1.667283 0.667376,0.256096 0.677808,1.602467 0.0144,1.857047 -0.644464,0.247305 -0.581078,0.258985 -1.029827,-0.189764 z m -17.45972,-0.416 c -0.101306,-0.264 -0.04471,-0.48 0.125764,-0.48 0.170476,0 0.309957,0.216 0.309957,0.48 0,0.264 -0.05659,0.48 -0.125764,0.48 -0.06917,0 -0.20865,-0.216 -0.309957,-0.48 z M 18.44,37.824719 c -0.08677,-0.140403 -0.02927,-0.463196 0.127789,-0.717324 0.215852,-0.349255 0.375746,-0.37186 0.655003,-0.0926 0.203194,0.203194 0.272692,0.525987 0.15444,0.717325 -0.252691,0.408861 -0.713627,0.454403 -0.937232,0.0926 z m 1.4,-0.70472 c 0,-0.355555 0.213333,-0.64 0.48,-0.64 0.266666,0 0.48,0.284445 0.48,0.64 0,0.355556 -0.213334,0.64 -0.48,0.64 -0.266667,0 -0.48,-0.284444 -0.48,-0.64 z m 12.601599,0.175325 c -0.244182,-0.636336 0.117556,-1.135325 0.82305,-1.135325 0.629059,0 0.968515,0.549325 0.741546,1.2 -0.192487,0.551824 -1.346324,0.504128 -1.564596,-0.06468 z M 21.32,37.184719 c -0.253007,-0.409372 0.333903,-1.12806 0.724223,-0.886832 0.513731,0.317504 0.437676,1.142112 -0.105338,1.142112 -0.253613,0 -0.532111,-0.114876 -0.618885,-0.25528 z m 1.570439,-0.04783 c -0.281356,-0.455245 0.07743,-0.976893 0.67191,-0.976893 0.280368,0 0.440976,0.22482 0.381114,0.533482 -0.124647,0.64271 -0.763574,0.91175 -1.053024,0.443411 z m 1.791262,-0.126646 c -0.443172,-0.533991 0.08646,-1.312333 0.726003,-1.066919 0.281762,0.108122 0.512296,0.4017 0.512296,0.652394 0,0.618742 -0.836434,0.898742 -1.238299,0.414525 z m 3.59484,-0.04811 c -0.110837,-0.288838 -0.04808,-0.678601 0.139459,-0.866141 0.487554,-0.487555 1.411331,-0.04195 1.283975,0.619357 -0.141857,0.736602 -1.167254,0.914378 -1.423434,0.246784 z m 1.981306,0.186736 c -0.305896,-0.49495 0.180487,-1.308877 0.782152,-1.308877 0.601666,0 1.088048,0.813927 0.782153,1.308877 -0.09896,0.160119 -0.450927,0.291123 -0.782153,0.291123 -0.331225,0 -0.683194,-0.131004 -0.782152,-0.291123 z m -3.864129,-0.35904 c -0.124275,-0.201081 -0.07538,-0.516176 0.108654,-0.700208 0.430048,-0.430048 1.432685,-0.05494 1.257721,0.470541 -0.178113,0.534938 -1.083639,0.687142 -1.366375,0.229667 z M 41.270553,36.62861 c -0.581427,-0.700576 -0.02,-1.588618 1.004323,-1.588618 0.636803,0 0.765123,0.161002 0.765123,0.96 0,0.7296 -0.16032,0.982906 -0.668003,1.055444 -0.367398,0.05249 -0.863049,-0.139578 -1.101443,-0.426826 z M 17.28,36.293334 c 0,-0.565098 0.688883,-0.466685 0.886666,0.126665 0.06967,0.209002 -0.101333,0.38 -0.38,0.38 -0.278666,0 -0.506666,-0.228 -0.506666,-0.506665 z m 26.559999,0.205552 c 0,-0.165613 0.142352,-0.389095 0.316336,-0.496621 0.181395,-0.112109 0.23504,0.01635 0.125763,0.301114 -0.212732,0.554374 -0.442099,0.655804 -0.442099,0.195507 z M 18.616536,35.983097 c 0.144727,-0.695075 0.712646,-0.737606 0.842545,-0.0631 0.06746,0.350272 -0.08949,0.56 -0.419081,0.56 -0.307433,0 -0.483829,-0.206988 -0.423464,-0.496902 z m 19.882494,-0.02659 c -0.213808,-0.557174 0.202765,-1.44377 0.766688,-1.631744 0.186998,-0.06233 0.572425,0.119094 0.856505,0.403174 0.391719,0.391722 0.436628,0.665767 0.185882,1.134288 -0.403334,0.753636 -1.533456,0.812535 -1.809075,0.09428 z M 19.982767,35.812118 c -0.279256,-0.451847 0.337503,-1.068608 0.78935,-0.789351 0.507527,0.313668 0.425526,1.137232 -0.113232,1.137232 -0.253613,0 -0.557866,-0.156547 -0.676118,-0.347881 z m 16.257232,0.134547 c -0.58856,-0.235424 -0.486969,-1.604819 0.136813,-1.844189 0.783895,-0.300806 1.62913,0.636087 1.194903,1.32448 -0.382829,0.606912 -0.752778,0.751287 -1.331716,0.519709 z M 16.500573,35.293801 c -0.173659,-0.456064 -0.136902,-0.492819 0.179135,-0.179136 0.218694,0.217069 0.317015,0.475277 0.218491,0.573802 -0.09852,0.09852 -0.277456,-0.07908 -0.397626,-0.394666 z m 5.082194,0.198317 c -0.118251,-0.191338 -0.0673,-0.495591 0.113233,-0.676119 0.403721,-0.403721 1.024,-0.06276 1.024,0.562887 0,0.538758 -0.823564,0.620758 -1.137233,0.113232 z m 12.020615,-0.128045 c -0.531712,-0.640669 -0.177533,-1.444074 0.636617,-1.444074 0.363047,0 0.743677,0.217834 0.845844,0.484074 0.183878,0.479184 -0.3797,1.435926 -0.845844,1.435926 -0.132899,0 -0.419376,-0.214166 -0.636617,-0.475926 z M 17.28,35.066665 c 0,-0.278666 0.228,-0.506666 0.506666,-0.506666 0.565097,0 0.466685,0.688884 -0.126666,0.886666 -0.209,0.06967 -0.38,-0.101331 -0.38,-0.38 z m 5.995381,0.262048 c -0.300395,-0.300394 0.108436,-1.088714 0.564619,-1.088714 0.456182,0 0.865013,0.78832 0.564618,1.088714 -0.105207,0.10521 -0.359285,0.191286 -0.564618,0.191286 -0.205334,0 -0.459412,-0.08608 -0.564619,-0.191286 z m 1.909014,-0.01098 C 24.680488,34.81383 24.979582,34.198278 25.68,34.297753 c 0.396,0.05624 0.72,0.316285 0.72,0.577872 0,0.508403 -0.842795,0.814922 -1.215605,0.442112 z m 2.048975,-0.09701 c -0.544854,-0.33687 -0.235329,-1.300733 0.417701,-1.300733 0.702593,0 0.965211,0.64088 0.466792,1.139136 -0.274989,0.2749 -0.603998,0.335005 -0.884493,0.161588 z m 1.92,0.0067 c -0.602826,-0.381699 -0.204659,-1.307389 0.56235,-1.307389 0.740023,0 1.0954,0.74088 0.595273,1.241005 -0.428688,0.428691 -0.572429,0.436935 -1.157623,0.06639 z m 2.00823,-0.17207 c -0.244184,-0.63633 0.117556,-1.135319 0.823048,-1.135319 0.715953,0 1.05795,0.749402 0.566347,1.241005 -0.499623,0.499623 -1.176886,0.448109 -1.389395,-0.10568 z M 18.56,34.399999 c 0,-0.329587 0.209727,-0.486537 0.56,-0.419081 0.674509,0.129897 0.631979,0.697817 -0.0631,0.842544 C 18.766988,34.88383 18.56,34.707433 18.56,34.399999 Z m -2.355367,-0.06203 c -0.360379,-0.36038 -0.219484,-0.737968 0.275367,-0.737968 0.264,0 0.48,0.135501 0.48,0.301114 0,0.403514 -0.499709,0.692512 -0.755367,0.436854 z m 4.010689,-0.308908 c 0.06239,-0.323981 0.32747,-0.58906 0.58906,-0.58906 0.685922,0 0.586849,0.929815 -0.113442,1.064679 -0.427647,0.08235 -0.557975,-0.04797 -0.475618,-0.475619 z m 22.572703,0.332297 c -0.44712,-0.447117 -0.217984,-1.704211 0.367769,-2.017699 0.841847,-0.450542 1.737076,0.264854 1.594596,1.274272 -0.07935,0.562157 -0.338711,0.808698 -0.922365,0.876762 -0.446589,0.05208 -0.914589,-0.0079 -1.04,-0.133335 z M 21.98,34.033334 c -0.452965,-0.452967 -0.196651,-1.073335 0.443463,-1.073335 0.447348,0 0.629762,0.173776 0.56,0.533482 -0.114221,0.588954 -0.66048,0.882835 -1.003463,0.539853 z m 17.901881,-0.387056 c -0.629146,-0.695197 -0.405376,-1.538563 0.483037,-1.820535 1.325974,-0.420848 2.157472,1.429348 0.936118,2.082999 -0.802729,0.429606 -0.790851,0.431805 -1.419155,-0.262464 z M 17.28,33.439999 c 0,-0.264 0.216,-0.48 0.48,-0.48 0.264,0 0.48,0.216 0.48,0.48 0,0.264 -0.216,0.48 -0.48,0.48 -0.264,0 -0.48,-0.216 -0.48,-0.48 z m 6.221021,0.129293 c -0.119212,-0.192889 -0.01971,-0.547683 0.221115,-0.788429 0.555124,-0.55494 1.407343,-0.08408 1.134536,0.626842 -0.224897,0.586074 -1.03372,0.68248 -1.355651,0.161587 z m 13.775286,-0.09242 c -0.795754,-0.581869 -0.482068,-1.616948 0.525548,-1.734181 0.881181,-0.102522 1.362362,0.521259 1.04336,1.352568 -0.256659,0.668842 -0.946595,0.836659 -1.568908,0.381613 z M 18.78,33.393334 c -0.452965,-0.452967 -0.196651,-1.073335 0.443463,-1.073335 0.447348,0 0.629762,0.173776 0.56,0.533482 -0.114221,0.588954 -0.66048,0.882835 -1.003463,0.539853 z m 6.616541,-0.271194 c -0.110837,-0.288838 -0.04808,-0.678601 0.139459,-0.866141 0.487554,-0.487554 1.411331,-0.04195 1.283975,0.619357 -0.141857,0.736602 -1.167254,0.914378 -1.423434,0.246784 z m 2.336792,0.264525 c -0.335989,-0.335987 -0.249051,-1.326819 0.137374,-1.565644 0.192889,-0.119212 0.576519,0.0091 0.852511,0.285055 0.413384,0.413383 0.429262,0.58921 0.09011,0.997863 -0.446122,0.537545 -0.746534,0.616188 -1.079995,0.282726 z m 6.804404,-0.293488 c -0.29743,-0.358384 -0.325642,-0.657405 -0.09632,-1.020954 0.469136,-0.743733 0.932954,-0.812136 1.520806,-0.224287 0.391719,0.391721 0.436628,0.665766 0.185882,1.134287 -0.401171,0.749597 -1.043603,0.79386 -1.610368,0.110954 z M 15.873531,32.77199 C 15.599846,32.058777 15.621657,31.999999 16.16,31.999999 c 0.264,0 0.48,0.207501 0.48,0.461114 0,0.676995 -0.54167,0.896694 -0.766469,0.310877 z m 13.682548,0.02896 c -0.110583,-0.288176 -0.05324,-0.671779 0.12744,-0.852454 0.521633,-0.521649 1.51648,-0.170085 1.51648,0.535887 0,0.813975 -1.353061,1.074519 -1.64392,0.316551 z m 2.346628,0.04709 c -0.09831,-0.256199 -0.0048,-0.703648 0.207712,-0.994335 0.531392,-0.726721 1.55391,-0.305929 1.426499,0.587042 -0.113725,0.797069 -1.364973,1.108915 -1.634211,0.407293 z M 20.38,32.753334 c -0.452965,-0.452967 -0.196651,-1.073335 0.443463,-1.073335 0.447348,0 0.629762,0.173776 0.56,0.533482 -0.114221,0.588954 -0.66048,0.882835 -1.003463,0.539853 z m 1.724962,-0.563258 C 21.653805,31.646467 21.893759,31.039999 22.56,31.039999 c 0.692874,0 0.922962,0.654181 0.410375,1.166768 -0.407137,0.407136 -0.515401,0.40505 -0.865413,-0.0167 z m -5.084044,-0.430077 c 0.05932,-0.308 0.319903,-0.56 0.579082,-0.56 0.259179,0 0.519766,0.252 0.579081,0.56 0.07567,0.392912 -0.09711,0.56 -0.579081,0.56 -0.481968,0 -0.654749,-0.167088 -0.579082,-0.56 z M 23.796541,31.52214 C 23.685704,31.233302 23.74846,30.843539 23.936,30.656 c 0.487554,-0.487555 1.411331,-0.04195 1.283975,0.619357 -0.141857,0.736601 -1.167254,0.914377 -1.423434,0.246783 z m 20.546316,-0.025 C 43.74157,30.895858 43.702476,30.345522 44.223999,29.824 c 0.759421,-0.759423 1.216,-0.422997 1.216,0.895999 0,1.371063 -0.294569,1.579716 -1.097142,0.777143 z M 15.68,30.811428 c 0,-0.800288 0.04071,-0.827859 0.517863,-0.350708 0.284826,0.284825 0.420327,0.675683 0.301115,0.868572 C 16.106268,31.96471 15.68,31.695168 15.68,30.811428 Z m 2.88,0.205108 c 0,-0.457952 0.172325,-0.630277 0.556325,-0.556326 0.834156,0.160644 0.927184,1.219789 0.107138,1.219789 -0.457951,0 -0.663463,-0.205512 -0.663463,-0.663463 z m 7.170676,0.222438 C 25.471677,30.564033 25.835218,30.08 26.601141,30.08 c 0.483433,0 0.617951,0.178174 0.541115,0.71673 -0.11934,0.836472 -1.137852,1.155568 -1.41158,0.442244 z m 2.24,-0.32 C 27.711677,30.244033 28.075218,29.76 28.841141,29.76 c 0.483433,0 0.617951,0.178174 0.541115,0.71673 -0.11934,0.836472 -1.137852,1.155568 -1.41158,0.442244 z m 13.12044,0.0012 C 40.707615,29.920735 41.095647,29.28 42.084383,29.28 c 0.848461,0 0.955616,0.107645 0.955616,0.96 0,0.80988 -0.137894,0.975861 -0.88182,1.06143 -0.562746,0.06473 -0.948845,-0.07324 -1.067063,-0.381308 z M 20.16,30.4 c 0,-0.745431 1.112076,-0.899165 1.383715,-0.191286 0.21578,0.562315 -0.04211,0.831285 -0.797049,0.831285 C 20.373333,31.039999 20.16,30.807272 20.16,30.4 Z m 10.036079,0.160934 c -0.110583,-0.288174 -0.05324,-0.671779 0.12744,-0.852454 0.521633,-0.521633 1.51648,-0.170069 1.51648,0.535902 0,0.813974 -1.353061,1.074519 -1.64392,0.316552 z m 2.568253,0.02151 c -0.318614,-0.830295 0.127962,-1.516539 0.914237,-1.404888 0.528874,0.0751 0.72143,0.315971 0.72143,0.902444 0,0.586472 -0.192556,0.827343 -0.72143,0.902443 -0.43273,0.06145 -0.798589,-0.09862 -0.914237,-0.399999 z M 35.315721,30.56 c -0.303187,-0.790094 0.133498,-1.44 0.967568,-1.44 0.892525,0 1.203552,0.540774 0.782211,1.36 -0.352528,0.685426 -1.497369,0.737768 -1.749779,0.08 z m 2.764278,-0.453334 c 0,-0.969582 0.417834,-1.301586 1.337866,-1.063051 1.308726,0.339312 0.966669,1.996384 -0.412102,1.996384 -0.809415,0 -0.925764,-0.117299 -0.925764,-0.933333 z M 16.8,30.4 c -0.267853,-0.433396 0.09358,-0.96 0.658885,-0.96 0.253613,0 0.461115,0.288 0.461115,0.64 0,0.662497 -0.772003,0.88307 -1.12,0.32 z m 5.28,-0.64 c 0,-0.426667 0.213333,-0.64 0.64,-0.64 0.426666,0 0.64,0.213333 0.64,0.64 0,0.426666 -0.213334,0.64 -0.64,0.64 -0.426667,0 -0.64,-0.213334 -0.64,-0.64 z m -3.727597,-0.168646 c -0.234555,-0.611238 0.406912,-1.137579 1.074287,-0.881483 0.604103,0.231816 0.379474,1.177067 -0.311333,1.310104 -0.306511,0.05903 -0.649841,-0.133851 -0.762954,-0.428621 z m 5.871992,0.286374 C 24.100978,29.754311 24,29.379318 24,29.04441 c 0,-0.448441 0.189757,-0.581973 0.72,-0.506667 0.470691,0.06685 0.72,0.322347 0.72,0.737874 0,0.634752 -0.791112,1.026604 -1.215605,0.602111 z M 15.68,29.28 c 0,-0.264 0.144,-0.48 0.32,-0.48 0.176,0 0.32,0.216 0.32,0.48 0,0.264 -0.144,0.48 -0.32,0.48 -0.176,0 -0.32,-0.216 -0.32,-0.48 z M 26.0416,28.975323 C 25.793471,28.328708 26.162496,27.84 26.898885,27.84 c 0.449189,0 0.621115,0.221441 0.621115,0.8 0,0.590786 -0.169998,0.8 -0.650044,0.8 -0.357523,0 -0.730283,-0.209105 -0.828356,-0.464677 z m -9.335268,-0.255398 c -0.474356,-0.571564 0.04387,-1.348903 0.725022,-1.087523 0.574811,0.220576 0.558427,1.198067 -0.02333,1.391738 -0.193585,0.06445 -0.509348,-0.07245 -0.701695,-0.304215 z M 20.16,28.48 c 0,-0.52683 0.165857,-0.660958 0.72,-0.582257 0.396,0.05624 0.72,0.318257 0.72,0.582257 0,0.264 -0.324,0.526015 -0.72,0.582256 -0.554143,0.0787 -0.72,-0.05543 -0.72,-0.582256 z m 8.114811,0.15763 c -0.11128,-0.289991 0.0078,-0.737382 0.264617,-0.994202 0.640291,-0.64029 1.600673,-0.226039 1.477491,0.6373 -0.121366,0.85061 -1.448335,1.122464 -1.742108,0.356902 z m 2.569521,-0.295187 c -0.318613,-0.830294 0.127963,-1.516539 0.914237,-1.404887 0.528874,0.0751 0.72143,0.315971 0.72143,0.902444 0,0.586472 -0.192556,0.827343 -0.72143,0.902443 -0.43273,0.06145 -0.798588,-0.09862 -0.914237,-0.4 z m 11.605264,-0.127641 c -0.686909,-0.759024 -0.667715,-1.110616 0.09848,-1.804017 0.721735,-0.653157 1.417376,-0.49222 1.91832,0.443805 0.280864,0.524798 0.222983,0.776026 -0.299065,1.298076 -0.797021,0.797022 -1.044573,0.805976 -1.717738,0.06214 z M 22.137743,27.763269 c 0.122466,-0.858383 1.058952,-1.130398 1.34303,-0.390101 0.270155,0.704011 -0.02169,1.106832 -0.801915,1.106832 -0.483433,0 -0.617951,-0.178175 -0.541115,-0.716731 z M 33.395721,28 c -0.306349,-0.79833 0.136688,-1.44 0.994237,-1.44 0.686713,0 0.810041,0.146159 0.810041,0.96 0,0.81384 -0.123328,0.96 -0.810041,0.96 -0.445527,0 -0.892931,-0.216 -0.994237,-0.48 z m 2.754832,-0.01138 C 35.569126,27.288041 36.130543,26.4 37.154876,26.4 c 0.636803,0 0.765123,0.161002 0.765123,0.96 0,0.7296 -0.16032,0.982906 -0.668003,1.055442 -0.367398,0.05249 -0.863049,-0.139578 -1.101443,-0.426823 z m 2.912115,-0.106259 c -0.427686,-0.799141 -0.150841,-1.558551 0.66225,-1.816616 0.865261,-0.274624 1.606592,0.434697 1.491261,1.426865 -0.126183,1.085502 -1.635008,1.358576 -2.153511,0.389751 z m -20.918825,-0.15138 c -0.246123,-0.641385 0.280048,-1.291684 0.863861,-1.067654 0.738364,0.283337 0.662591,1.496673 -0.09347,1.496673 -0.33317,0 -0.679847,-0.193059 -0.770393,-0.429019 z m 6.179539,-0.04691 C 23.803763,27.057973 24.139284,26.24 24.91572,26.24 c 0.819173,0 1.098711,0.819854 0.487826,1.430739 -0.599323,0.599323 -0.593894,0.599256 -1.080164,0.01333 z m 2.275611,-0.573082 c -0.530867,-0.530867 -0.435705,-1.413083 0.17782,-1.648515 0.68202,-0.261716 1.468595,0.502607 1.210203,1.175966 -0.262339,0.683643 -0.944641,0.915931 -1.388023,0.472549 z M 16.3249,26.8 c 0.0027,-0.22 0.140698,-0.614797 0.306675,-0.877326 0.394908,-0.624637 1.140534,0.04725 0.860958,0.775816 C 17.264184,27.293558 16.317846,27.375829 16.3249,26.8 Z m 3.622566,-0.10151 C 19.84162,26.42266 19.90846,26.043539 20.096,25.856 c 0.497745,-0.497745 1.344,-0.06079 1.344,0.693956 0,0.78919 -1.200833,0.908694 -1.492534,0.148534 z m 8.830272,-0.325314 c -0.487876,-0.587855 -0.07179,-1.509618 0.754969,-1.672482 0.722619,-0.14235 1.347259,1.120981 0.850316,1.719761 -0.497865,0.59989 -1.082471,0.582673 -1.605285,-0.04728 z M 22.08,26.08 c -0.31782,-0.38295 -0.31782,-0.577051 0,-0.96 0.522108,-0.629102 1.161361,-0.610731 1.411284,0.04056 C 23.687096,25.670837 23.197045,26.56 22.72,26.56 c -0.1329,0 -0.4209,-0.216 -0.64,-0.48 z M 18.133333,26.02667 C 17.671599,25.564932 17.933357,24.64 18.525763,24.64 c 0.73166,0 1.082425,0.743811 0.58523,1.241006 -0.410867,0.410867 -0.673347,0.449974 -0.97766,0.14566 z m 13.030611,-0.24524 c -0.343532,-0.895229 0.128487,-1.511645 1.074235,-1.402861 0.700227,0.08054 0.88182,0.266175 0.88182,0.901431 0,0.635255 -0.181593,0.820887 -0.88182,0.90143 -0.57506,0.06615 -0.948755,-0.073 -1.074235,-0.4 z m 2.878948,-0.322738 c -0.310617,-0.80946 0.02256,-1.615664 0.708378,-1.714135 0.857187,-0.123074 1.520025,0.680667 1.253603,1.520086 -0.244074,0.769006 -1.686602,0.911678 -1.961981,0.194049 z m -9.936694,-0.363506 c -0.106543,-0.277647 0.04198,-0.740504 0.330044,-1.028571 0.48501,-0.485011 0.562505,-0.485011 1.047516,0 C 26.137992,24.720849 25.8377,25.6 24.96,25.6 c -0.363048,0 -0.747258,-0.227166 -0.853802,-0.504814 z m 12.824918,0.06494 C 36.547615,24.160735 36.935647,23.52 37.924383,23.52 c 0.848461,0 0.955616,0.107645 0.955616,0.96 0,0.809881 -0.137894,0.975861 -0.88182,1.06143 -0.562746,0.06473 -0.948845,-0.07324 -1.067063,-0.381308 z m 3.268771,-0.04595 c -0.62878,-0.628781 -0.641603,-0.825393 -0.101958,-1.563401 0.877405,-1.199926 3.05359,0.07563 2.267754,1.329229 -0.473744,0.755734 -1.530026,0.869942 -2.165796,0.234172 z m 3.33473,0.02344 c -0.211059,-0.254313 -0.336691,-0.781516 -0.279181,-1.171564 0.09092,-0.616647 0.176954,-0.556318 0.659386,0.462387 0.555932,1.173906 0.339904,1.576854 -0.380205,0.709177 z M 19.826671,24.783939 c -0.338259,-0.407577 -0.326843,-0.580911 0.064,-0.971758 C 20.406949,23.295907 21.44,23.507978 21.44,24.130236 21.44,24.542439 20.80825,25.28 20.455182,25.28 c -0.11925,0 -0.40208,-0.223228 -0.628511,-0.496061 z m 6.748101,-0.28614 C 25.99066,23.793987 26.402586,23.04 27.371212,23.04 c 0.717532,0 0.817441,0.120056 0.730043,0.877263 -0.115729,1.002658 -0.92175,1.309195 -1.526483,0.580536 z m -4.446258,-0.461044 c -0.631303,-0.400074 -0.311721,-1.461021 0.474026,-1.573674 0.802402,-0.115042 1.256928,0.775096 0.723798,1.417478 -0.421806,0.508245 -0.604675,0.532091 -1.197824,0.156196 z m 7.004244,-0.181383 C 28.530215,23.129353 28.858759,22.24 29.729506,22.24 c 1.009413,0 1.581217,0.888221 1.012755,1.573176 -0.524177,0.631594 -1.107651,0.646891 -1.609503,0.0422 z M 17.610177,23.76 c 0.0056,-0.132 0.227283,-0.527299 0.492635,-0.878442 0.39541,-0.523249 0.532573,-0.557353 0.760216,-0.189019 C 19.256487,23.32917 18.919259,24 18.205763,24 17.872593,24 17.60458,23.892 17.610177,23.76 Z m 14.069268,-0.721037 c -0.460195,-0.859881 0.119122,-1.673487 1.092551,-1.534406 0.984643,0.140683 0.958336,1.97411 -0.03034,2.114861 -0.452182,0.06438 -0.826607,-0.140234 -1.062205,-0.580455 z M 24.4,23.14807 c -0.560607,-0.22621 -0.500297,-1.60111 0.08,-1.823791 0.773324,-0.296752 1.44,0.127198 1.44,0.915721 0,0.563154 -0.689763,1.271397 -1.066172,1.094737 C 24.824222,23.320842 24.62,23.236842 24.4,23.14807 Z m 10.529475,-0.301435 c -0.851671,-0.596532 -0.873895,-1.140545 -0.0761,-1.862545 0.809926,-0.732972 1.94662,-0.186463 1.94662,0.93591 0,1.071029 -0.974876,1.553971 -1.870524,0.926635 z m -15.406093,-0.28256 c -0.570176,-0.687019 -0.148027,-1.509188 0.711918,-1.386519 0.820135,0.11699 1.163909,1.168718 0.516185,1.579199 -0.599908,0.380178 -0.775542,0.352623 -1.228103,-0.19268 z M 37.823999,22.336 C 36.9615,21.473501 37.633887,20.16 38.937903,20.16 c 0.512692,0 0.789965,0.239307 0.931735,0.804155 0.346109,1.379015 -1.081251,2.336231 -2.045639,1.371845 z M 26.563382,21.924075 c -0.828679,-0.998497 0.576846,-2.28099 1.49432,-1.363516 C 28.677547,21.180404 28.332718,22.4 27.537618,22.4 c -0.31859,0 -0.756996,-0.214166 -0.974236,-0.475925 z m 14.407875,-0.143038 c -0.805936,-1.505906 -0.06927,-1.770708 0.948742,-0.341037 0.679552,0.954342 0.679748,0.96 0.03305,0.96 -0.357792,0 -0.7996,-0.278533 -0.981792,-0.618963 z M 21.564332,21.302443 C 21.245719,20.472149 21.692295,19.785904 22.478569,19.897556 23.007443,19.972657 23.2,20.213527 23.2,20.8 c 0,0.586473 -0.192557,0.827343 -0.721431,0.902443 -0.432729,0.06145 -0.798588,-0.09862 -0.914237,-0.4 z m 7.589329,-0.301884 c -0.840636,-1.012904 0.857163,-2.326877 1.79491,-1.389131 0.680542,0.680542 0.246741,1.828572 -0.690953,1.828572 -0.40659,0 -0.90337,-0.197749 -1.103957,-0.439441 z m -5.138889,-0.66276 c -0.864222,-1.041323 0.56599,-2.294179 1.524617,-1.335553 0.407535,0.407535 0.449269,0.657581 0.180888,1.083758 -0.467251,0.741972 -1.20794,0.851325 -1.705505,0.251795 z m 7.997634,-0.154618 c -0.639944,-1.195745 0.41503,-2.250719 1.610774,-1.610775 0.695715,0.372334 0.808778,1.267636 0.232819,1.843594 -0.575958,0.575958 -1.471257,0.462895 -1.843593,-0.232819 z m 3.215027,-0.470126 C 35.009324,19.45025 34.877926,18.9033 34.935436,18.497613 35.017081,17.921668 35.242764,17.76 35.965123,17.76 c 1.14064,0 1.795299,0.858866 1.28056,1.68 -0.459434,0.732904 -1.517776,0.876091 -2.01825,0.273055 z M 26.339029,18.996504 C 26.07431,18.306657 26.642783,17.44 27.36,17.44 c 0.313636,0 0.716859,0.232427 0.896051,0.516504 C 28.744923,18.731528 28.293043,19.52 27.36,19.52 c -0.464053,0 -0.907299,-0.227272 -1.020971,-0.523496 z m 12.054551,0.03576 c -0.632429,-0.762032 -0.168515,-0.878448 0.681088,-0.170915 0.591968,0.49298 0.647354,0.639767 0.244512,0.648002 -0.286448,0.0059 -0.702969,-0.208834 -0.9256,-0.477087 z M 22.216639,18.713129 c 0.657625,-0.497523 1.025106,-0.418445 0.676519,0.145581 -0.116011,0.187709 -0.454431,0.33671 -0.752044,0.331113 -0.475087,-0.0089 -0.465871,-0.0671 0.07552,-0.476694 z m 6.917549,-0.766617 C 28.852207,17.419625 28.910831,17.169169 29.44,16.64 c 0.89491,-0.894911 2.004554,-0.35684 1.859178,0.901522 -0.130043,1.125641 -1.629222,1.406081 -2.16499,0.40499 z M 24.42829,17.402145 c 0.933863,-0.506089 1.397414,-0.426228 1.024868,0.176565 -0.116011,0.187709 -0.598431,0.335524 -1.072044,0.328478 L 23.52,17.894376 Z m 8.074567,0.015 c -0.877334,-0.877333 -0.633342,-1.425522 0.537142,-1.206826 1.39946,0.261477 1.662173,0.561797 1.037716,1.186255 -0.652516,0.652515 -0.939172,0.65626 -1.574858,0.02057 z M 27.12,16.42807 c 0.22,-0.08877 0.58,-0.08877 0.8,0 0.22,0.08877 0.04,0.161403 -0.4,0.161403 -0.44,0 -0.62,-0.07263 -0.4,-0.161403 z"
       style="fill:#884bfa;fill-opacity:1;stroke-width:0.32" />
  </g>
</svg>
