<svg xmlns="http://www.w3.org/2000/svg" xmlns:svg="http://www.w3.org/2000/svg" id="svg846" width="61.44" height="61.44" version="1.1" viewBox="0 0 61.44 61.44"><metadata id="metadata852"/><g id="g854"><path id="path1429" d="M 26.029303,58.428636 C 15.423714,56.401983 7.2547791,49.422886 3.8009465,39.437926 2.7364233,36.360412 2.7224286,36.247417 2.7212222,30.719999 2.7200207,25.21494 2.737859,25.06846 3.7734035,22.08 5.31067,17.643627 7.3374191,14.422581 10.72,11.04 14.702921,7.0570783 18.931785,4.6875631 24.526901,3.3037225 c 2.959713,-0.7320258 9.106484,-0.7320258 12.066196,0 5.595117,1.3838406 9.823981,3.7533558 13.806902,7.7362775 3.381501,3.3815 5.450096,6.666886 6.850438,10.88 1.397837,4.20558 1.841853,8.070523 1.351028,11.759999 -0.888759,6.680672 -3.513895,12.032429 -8.201466,16.72 -3.951869,3.951869 -8.274793,6.386125 -13.641289,7.681459 -2.935463,0.708547 -7.983548,0.871891 -10.729407,0.347178 z" style="fill:#f5f5f5;fill-opacity:1;stroke-width:.32"/><path id="path1427" d="m 26.4,45.475209 c -4.408635,-1.284007 -7.290972,-3.723904 -9.303252,-7.87521 -1.210454,-2.497148 -1.240952,-2.646419 -1.242211,-6.08 C 15.853833,29.584 15.978754,27.424 16.132151,26.72 c 0.380503,-1.746276 2.547129,-5.34419 4.018943,-6.673886 5.329204,-4.814616 12.958617,-5.39538 18.885449,-1.437594 2.247351,1.500723 4.018512,3.580482 5.338586,6.268751 0.855433,1.742056 0.904093,2.07 0.890633,6.002728 -0.01315,3.840256 -0.08506,4.330176 -0.935667,6.374052 -1.101712,2.647241 -3.9424,5.737267 -6.432944,6.99758 C 34.290687,46.076649 30.024094,46.530716 26.4,45.475209 Z m 9.220972,-3.66287 c 2.70049,-1.254096 4.658042,-3.207882 5.927696,-5.916292 0.750285,-1.600499 0.849005,-2.195859 0.831725,-5.016048 -0.01744,-2.848256 -0.117139,-3.389335 -0.906922,-4.922491 -1.299027,-2.521718 -3.401609,-4.602913 -5.884281,-5.824424 -1.944151,-0.956551 -2.423955,-1.05804 -5.02919,-1.06378 -2.628101,-0.0058 -3.055743,0.08443 -4.889293,1.031472 -2.787362,1.439698 -5.225268,4.015487 -6.186986,6.536908 -1.10921,2.908113 -1.051876,6.420168 0.147616,9.042315 1.152558,2.519549 3.690911,5.114196 6.128663,6.264576 1.642572,0.775136 2.327612,0.908176 4.740972,0.92074 2.541523,0.01322 3.04872,-0.09108 5.12,-1.052976 z M 25.329273,34.424444 c -2.291888,-2.240525 -2.412037,-2.426965 -2.113754,-3.279999 0.506654,-1.448936 1.613011,-1.341131 3.532079,0.34417 l 1.627599,1.429336 2.852401,-2.882127 c 1.568821,-1.585169 3.40123,-3.3228 4.072017,-3.861402 1.056269,-0.848116 1.324141,-0.931652 2,-0.623709 1.283552,0.584824 0.959552,1.540648 -1.359417,4.010375 -2.927677,3.118009 -7.378942,7.238911 -7.819237,7.238911 -0.198921,0 -1.45518,-1.068998 -2.791688,-2.375555 z" style="fill:#884bfa;fill-opacity:1;stroke-width:.32"/></g></svg>