<?xml version="1.0" encoding="UTF-8" standalone="no"?>
<svg
   xmlns:dc="http://purl.org/dc/elements/1.1/"
   xmlns:cc="http://creativecommons.org/ns#"
   xmlns:rdf="http://www.w3.org/1999/02/22-rdf-syntax-ns#"
   xmlns:svg="http://www.w3.org/2000/svg"
   xmlns="http://www.w3.org/2000/svg"
   xmlns:sodipodi="http://sodipodi.sourceforge.net/DTD/sodipodi-0.dtd"
   xmlns:inkscape="http://www.inkscape.org/namespaces/inkscape"
   inkscape:version="1.0 (4035a4fb49, 2020-05-01)"
   sodipodi:docname="index.svg"
   viewBox="0 0 61.439999 61.439999"
   height="61.439999"
   width="61.439999"
   id="svg1431"
   version="1.1">
  <metadata
     id="metadata1437">
    <rdf:RDF>
      <cc:Work
         rdf:about="">
        <dc:format>image/svg+xml</dc:format>
        <dc:type
           rdf:resource="http://purl.org/dc/dcmitype/StillImage" />
        <dc:title></dc:title>
      </cc:Work>
    </rdf:RDF>
  </metadata>
  <defs
     id="defs1435" />
  <sodipodi:namedview
     inkscape:current-layer="g1439"
     inkscape:window-maximized="1"
     inkscape:window-y="-9"
     inkscape:window-x="-9"
     inkscape:cy="30.719999"
     inkscape:cx="30.719999"
     inkscape:zoom="13.509115"
     showgrid="false"
     id="namedview1433"
     inkscape:window-height="1001"
     inkscape:window-width="1920"
     inkscape:pageshadow="2"
     inkscape:pageopacity="0"
     guidetolerance="10"
     gridtolerance="10"
     objecttolerance="10"
     borderopacity="1"
     bordercolor="#666666"
     pagecolor="#ffffff" />
  <g
     id="g1439"
     inkscape:label="Image"
     inkscape:groupmode="layer">
    <path
       id="path2006"
       d="M 27.04,58.547826 C 15.253195,56.743122 5.899725,48.312271 3.2025887,37.061724 2.3281313,33.414105 2.3326478,28.012001 3.2132419,24.32 5.2512111,15.775556 11.761983,8.1729384 19.833297,4.91279 23.719543,3.3430655 26.468695,2.8021214 30.56,2.8021214 c 4.091305,0 6.840457,0.5409441 10.726703,2.1106686 10.302055,4.1611846 17.375776,14.667365 17.375776,25.807209 0,11.139847 -7.073721,21.646026 -17.375776,25.80721 C 36.751321,58.359132 31.070155,59.164892 27.04,58.547826 Z"
       style="fill:#f5f5f5;fill-opacity:1;stroke-width:0.32" />
    <path
       id="path2004"
       d="M 26.845591,44.976172 C 24.429509,44.309884 22.039022,42.850988 20,40.798361 14.211086,34.970825 14.211086,26.469173 20,20.641637 c 3.057443,-3.077842 6.603692,-4.634041 10.56,-4.634041 3.956307,0 7.502556,1.556199 10.559999,4.634041 5.788915,5.827536 5.788915,14.329188 0,20.156724 -3.944563,3.97088 -9.319899,5.544125 -14.274408,4.177811 z"
       style="fill:#884bfa;fill-opacity:1;stroke-width:0.32" />
  </g>
</svg>
