<svg xmlns="http://www.w3.org/2000/svg" xmlns:svg="http://www.w3.org/2000/svg" id="svg1431" width="61.44" height="61.44" version="1.1" viewBox="0 0 61.44 61.44"><metadata id="metadata1437"/><g id="g1439"><path id="path2006" d="M 27.04,58.547826 C 15.253195,56.743122 5.899725,48.312271 3.2025887,37.061724 2.3281313,33.414105 2.3326478,28.012001 3.2132419,24.32 5.2512111,15.775556 11.761983,8.1729384 19.833297,4.91279 23.719543,3.3430655 26.468695,2.8021214 30.56,2.8021214 c 4.091305,0 6.840457,0.5409441 10.726703,2.1106686 10.302055,4.1611846 17.375776,14.667365 17.375776,25.807209 0,11.139847 -7.073721,21.646026 -17.375776,25.80721 C 36.751321,58.359132 31.070155,59.164892 27.04,58.547826 Z" style="fill:#f5f5f5;fill-opacity:1;stroke-width:.32"/><path id="path2004" d="M 26.845591,44.976172 C 24.429509,44.309884 22.039022,42.850988 20,40.798361 14.211086,34.970825 14.211086,26.469173 20,20.641637 c 3.057443,-3.077842 6.603692,-4.634041 10.56,-4.634041 3.956307,0 7.502556,1.556199 10.559999,4.634041 5.788915,5.827536 5.788915,14.329188 0,20.156724 -3.944563,3.97088 -9.319899,5.544125 -14.274408,4.177811 z" style="fill:#884bfa;fill-opacity:1;stroke-width:.32"/></g></svg>
