<?xml version="1.0" encoding="UTF-8"?>
<svg width="512" height="512" desc="Created with imagetracer.js version 1.2.5" version="1.1" xmlns="http://www.w3.org/2000/svg">
 <path d="m382.5 122q12.7-1.7 21 1l10.5 10.5 2 4v92l1 2-1 3 1 1v122q-4.2 9.8-11.5 16.5-3.5 4.5-13 3l-1-1h-7l-17-3h-8l-1-1h-7l-17-3h-8l-17-3h-8l-17-3h-8l-1-1h-7l-1-1h-7l-1-1h-7l-1-1h-7l-1-1h-7l-1-1-63-7-11.5 19.5-30 61-2.5 2.5-4 1-3.5-2.5-1-11 1-1 1-25 1-1v-10l1-1v-10l1-1v-10l1-1v-14l-9.5-3.5-38-4q-7-1.6-10.5-6.5l-7-12v-32l1-1v-64l1-1v-41l1-1v-12l6-12v-3l9.5-11.5 11-4 19-1 1-1 50-2 1-1h18l1-1h18l1-1h18l1-1h19l1-1h18l1-1h18l1-1h19l1-1h19l1-1 65-2 1-1zm-18.5 27-1 1h-31l-1 1h-28l-1 1h-30l-1 1-83 2-1 1h-28l-1 1h-24l-1 1h-22l-1 1h-17l-5 1-2 2v9l-1 1-1 48-1 1v31l-1 1v41l-1 1q-1 9 1 13l9 2 41 5 7 2 3 1v10 2l1 2v29h2l27-39 21 1 8 2 46 5 8 2 29 3 1 1h7l8 2 46 5 8 2 24 2 1 1h13v-196l-1-1v-2h-27z"/>
 <path d="m161.5 207q8.3-1.3 10.5 3.5l2 11 1.5 1.5h6l8-3 6.5 4.5q1 6.5-2.5 8.5l-7.5 6.5v3l5.5 5.5 3.5 2.5 1 7q-1.7 5.3-10.5 3.5l-7-4h-3l-1.5 1.5-1 12-3.5 3.5-8 1q-6-5.8-5.5-17-7-1.3-9.5 3h-6l-4.5-3.5-2-5 3.5-4.5 8.5-6.5v-2l-11-11-1-3 4.5-5.5h7q2.3 3.8 9 3l1.5-1.5 2-10 3.5-4.5z"/>
 <path d="m234.5 207q8.3-1.3 10.5 3.5l2 11 1.5 1.5q7.4 0.9 10-3h6q5.4 1.6 4.5 9.5l-10 10v3l11 12-3.5 5.5-8 1-7-4h-3l-1.5 1.5-1 12-3.5 3.5-8 1q-6-5.8-5.5-17l-2.5-1-8 4h-6l-3.5-2-2-4.5q1.4-6.1 6.5-8.5l4.5-3.5v-3l-7.5-7.5-2.5-1.5-1-3 3.5-6.5 8-1 4 3h5l1.5-1.5 2-10 3.5-4.5z"/>
 <path d="m307.5 207h9l1.5 1.5 5.5 14.5h4l6-3h6l3.5 6.5q-1.2 5.8-5.5 8.5l-5.5 4.5q-0.7 3.8 1.5 4.5l8.5 7.5q1.5 8-3.5 9.5h-7q-2-3-8-2l-4.5 11.5-3.5 3.5q-7.2 1.3-9.5-2.5l-2-7v-6l-1.5-1.5h-3l-7 4h-8q-3.5-2-2.5-8.5l10-11v-2l-9-7-1-7 3.5-4.5 7-1 10 5 1.5-1.5 1-13 2.5-3.5z"/>
</svg>
