<?xml version="1.0" encoding="UTF-8" standalone="no"?>
<svg
   viewBox="0 0 48 48"
   id="vector"
   version="1.1"
   sodipodi:docname="vector.svg"
   width="48"
   height="48"
   inkscape:export-filename="C:\Users\Dell\Downloads\vector.png"
   inkscape:export-xdpi="384"
   inkscape:export-ydpi="384"
   inkscape:version="1.1.2 (0a00cf5339, 2022-02-04, custom)"
   xmlns:inkscape="http://www.inkscape.org/namespaces/inkscape"
   xmlns:sodipodi="http://sodipodi.sourceforge.net/DTD/sodipodi-0.dtd"
   xmlns="http://www.w3.org/2000/svg"
   xmlns:svg="http://www.w3.org/2000/svg">
  <defs
     id="defs7" />
  <sodipodi:namedview
     id="namedview5"
     pagecolor="#505050"
     bordercolor="#ffffff"
     borderopacity="1"
     inkscape:pageshadow="0"
     inkscape:pageopacity="0"
     inkscape:pagecheckerboard="1"
     showgrid="false"
     inkscape:zoom="15.799673"
     inkscape:cx="15.981343"
     inkscape:cy="25.601795"
     inkscape:window-width="1920"
     inkscape:window-height="1002"
     inkscape:window-x="-8"
     inkscape:window-y="-8"
     inkscape:window-maximized="1"
     inkscape:current-layer="vector" />
  <path
     id="path"
     d="M 24.000002,24 M 2.000116,24 C 1.9849984,19.358506 3.4476261,14.833804 6.1763524,11.073892 8.9050789,7.313982 12.763847,4.5147701 17.189523,3.0793733 c 4.425677,-1.4391644 9.195279,-1.4391644 13.620956,0 4.425679,1.4353968 8.284446,4.2346087 11.013169,7.9945187 2.728727,3.759912 4.191355,8.284614 4.176236,12.926108 0.01512,4.641493 -1.447509,9.166196 -4.176236,12.926107 -2.728723,3.75991 -6.58749,6.559123 -11.013169,7.99452 -4.425677,1.439164 -9.195279,1.439164 -13.620956,0 C 12.763847,43.48523 8.9050789,40.686017 6.1763524,36.926107 3.4476261,33.166196 1.9849984,28.641493 2.000116,24"
     fill="#f5f5f5"
     stroke-width="1.04592"
     fill-rule="evenodd" />
  <path
     id="path_1"
     d="m 24.000002,14.279989 c -2.58511,0 -5.068176,1.024745 -6.893625,2.84819 C 15.277147,18.947855 14.24915,21.423067 14.24915,24 c 0,2.576933 1.027997,5.052144 2.857227,6.87182 1.825449,1.823445 4.308515,2.84819 6.893625,2.84819 2.585109,0 5.068174,-1.024745 6.893624,-2.84819 1.829228,-1.819676 2.857225,-4.294887 2.857225,-6.87182 0,-2.576933 -1.027997,-5.052145 -2.857225,-6.871821 -1.82545,-1.823445 -4.308515,-2.84819 -6.893624,-2.84819 z M 12.000408,24 c 0,-2.524189 0.801233,-4.988099 2.290315,-7.030054 1.489084,-2.045723 3.59043,-3.564004 6.001687,-4.347633 2.407478,-0.779861 5.007705,-0.779861 7.415182,0 2.411257,0.783629 4.512606,2.30191 6.001689,4.347633 1.489083,2.041955 2.290316,4.505865 2.290316,7.030054 0,3.172189 -1.266102,6.216285 -3.514842,8.457916 -2.248745,2.24163 -5.3025,3.503725 -8.484753,3.503725 -3.182255,0 -6.23601,-1.262095 -8.484753,-3.503725 C 13.266507,30.216285 12.000408,27.172189 12.000408,24 Z m 9.75085,-0.372978 c 0,-0.297627 0.117162,-0.583954 0.328808,-0.794931 0.211647,-0.207209 0.495102,-0.327768 0.793674,-0.327768 h 1.500422 c 0.298573,0 0.585807,0.116792 0.797453,0.327768 0.211646,0.210977 0.328808,0.497304 0.328808,0.794931 v 4.110284 h 0.374161 c 0.294793,0.0075 0.574468,0.128093 0.782335,0.335303 0.207867,0.210976 0.321249,0.493535 0.321249,0.787395 0,0.293861 -0.113382,0.57642 -0.321249,0.783629 -0.207867,0.210978 -0.487542,0.331536 -0.782335,0.33907 H 22.87374 c -0.294793,-0.0075 -0.574469,-0.128092 -0.782336,-0.33907 -0.204087,-0.207209 -0.321248,-0.489768 -0.321248,-0.783629 0,-0.29386 0.117161,-0.576419 0.321248,-0.787395 0.207867,-0.20721 0.487543,-0.327768 0.782336,-0.335303 h 0.37794 v -2.991352 h -0.37794 c -0.298572,0 -0.582027,-0.116791 -0.793674,-0.327768 -0.211646,-0.210977 -0.328808,-0.493536 -0.328808,-0.791164 z m 2.248744,-2.618375 c 0.396836,0 0.778556,-0.158232 1.062011,-0.437023 0.279675,-0.278791 0.43841,-0.659304 0.43841,-1.058652 0,-0.395583 -0.158735,-0.776094 -0.43841,-1.054885 -0.283455,-0.282558 -0.665175,-0.437023 -1.062011,-0.437023 -0.396838,0 -0.778557,0.154465 -1.062012,0.437023 -0.279676,0.278791 -0.438411,0.659302 -0.438411,1.054885 0,0.399348 0.158735,0.779861 0.438411,1.058652 0.283455,0.278791 0.665174,0.437023 1.062012,0.437023 z"
     fill="#ef5350"
     stroke-width="1.49805"
     fill-rule="evenodd"
     style="fill:#884bfa;fill-opacity:1" />
</svg>
