<svg xmlns="http://www.w3.org/2000/svg" id="vector" width="48" height="48" version="1.1" viewBox="0 0 48 48"><path id="path" fill="#f5f5f5" fill-rule="evenodd" stroke-width="1.046" d="m24 24m-22 0c-0.015118-4.6415 1.4475-9.1662 4.1762-12.926 2.7287-3.7599 6.5875-6.5591 11.013-7.9945 4.4257-1.4392 9.1953-1.4392 13.621 0 4.4257 1.4354 8.2844 4.2346 11.013 7.9945 2.7287 3.7599 4.1914 8.2846 4.1762 12.926 0.01512 4.6415-1.4475 9.1662-4.1762 12.926-2.7287 3.7599-6.5875 6.5591-11.013 7.9945-4.4257 1.4392-9.1953 1.4392-13.621 0-4.4257-1.4354-8.2844-4.2346-11.013-7.9945-2.7287-3.7599-4.1914-8.2846-4.1762-12.926"/><path id="path_1" fill="#7C3AED" fill-rule="evenodd" stroke-width="1.498" d="m24 14.28c-2.5851 0-5.0682 1.0247-6.8936 2.8482-1.8292 1.8197-2.8572 4.2949-2.8572 6.8718s1.028 5.0521 2.8572 6.8718c1.8254 1.8234 4.3085 2.8482 6.8936 2.8482s5.0682-1.0247 6.8936-2.8482c1.8292-1.8197 2.8572-4.2949 2.8572-6.8718s-1.028-5.0521-2.8572-6.8718c-1.8254-1.8234-4.3085-2.8482-6.8936-2.8482zm-12 9.72c0-2.5242 0.80123-4.9881 2.2903-7.0301 1.4891-2.0457 3.5904-3.564 6.0017-4.3476 2.4075-0.77986 5.0077-0.77986 7.4152 0 2.4113 0.78363 4.5126 2.3019 6.0017 4.3476 1.4891 2.042 2.2903 4.5059 2.2903 7.0301 0 3.1722-1.2661 6.2163-3.5148 8.4579s-5.3025 3.5037-8.4848 3.5037-6.236-1.2621-8.4848-3.5037c-2.2487-2.2416-3.5148-5.2857-3.5148-8.4579zm9.7508-0.37298c0-0.29763 0.11716-0.58395 0.32881-0.79493 0.21165-0.20721 0.4951-0.32777 0.79367-0.32777h1.5004c0.29857 0 0.58581 0.11679 0.79745 0.32777 0.21165 0.21098 0.32881 0.4973 0.32881 0.79493v4.1103h0.37416c0.29479 0.0075 0.57447 0.12809 0.78234 0.3353 0.20787 0.21098 0.32125 0.49354 0.32125 0.7874s-0.11338 0.57642-0.32125 0.78363c-0.20787 0.21098-0.48754 0.33154-0.78234 0.33907h-3.0008c-0.29479-0.0075-0.57447-0.12809-0.78234-0.33907-0.20409-0.20721-0.32125-0.48977-0.32125-0.78363s0.11716-0.57642 0.32125-0.7874c0.20787-0.20721 0.48754-0.32777 0.78234-0.3353h0.37794v-2.9914h-0.37794c-0.29857 0-0.58203-0.11679-0.79367-0.32777-0.21165-0.21098-0.32881-0.49354-0.32881-0.79116zm2.2487-2.6184c0.39684 0 0.77856-0.15823 1.062-0.43702 0.27968-0.27879 0.43841-0.6593 0.43841-1.0587 0-0.39558-0.15874-0.77609-0.43841-1.0549-0.28346-0.28256-0.66518-0.43702-1.062-0.43702-0.39684 0-0.77856 0.15446-1.062 0.43702-0.27968 0.27879-0.43841 0.6593-0.43841 1.0549 0 0.39935 0.15874 0.77986 0.43841 1.0587 0.28346 0.27879 0.66517 0.43702 1.062 0.43702z"/></svg>