<?xml version="1.0" encoding="UTF-8"?>
<svg id="svg830" width="61.44" height="61.44" version="1.1" viewBox="0 0 61.44 61.44" xmlns="http://www.w3.org/2000/svg">
 <g id="g838" stroke-width=".32">
  <path id="path844" d="m25.28 58.257c-11.057-2.3503-19.358-10.154-22.06-20.74-0.925-3.6229-0.925-9.9715 0-13.594 2.205-8.6363 8.6685-16.019 16.78-19.166 5.5137-2.1393 10.566-2.6519 15.68-1.5908 11.206 2.3251 19.358 9.9581 22.282 20.864 1.0175 3.7955 1.0175 9.5854 0 13.381-2.9236 10.905-11.075 18.538-22.282 20.864-3.5687 0.74042-6.8612 0.73496-10.4-0.01725z" fill="#f5f5f5"/>
  <path id="path842" d="m30.183 44.928c-0.27281-0.71092 0.57941-1.1818 1.1345-0.62684 0.24082 0.24075 0.34033 0.59554 0.22112 0.78843-0.32193 0.52089-1.1308 0.42449-1.3557-0.16159zm1.8167 0.19229c0-0.176 0.324-0.3178 0.72-0.3151 0.58222 4e-3 0.62815 0.06426 0.24 0.3151-0.6204 0.40094-0.96 0.40094-0.96 0zm-5.6-0.32c-0.52173-0.2242-0.54-0.27917-0.09889-0.29751 0.29761-0.01237 0.63011 0.12151 0.73889 0.29751 0.22741 0.36796 0.21629 0.36796-0.64 0zm1.38 0.1014c0.231-0.09244 0.507-0.08107 0.61333 0.02525 0.10633 0.10633-0.08267 0.18196-0.42 0.16807-0.37278-0.01536-0.44861-0.09118-0.19333-0.19333zm0.92-0.30807c-0.45296-0.45297-0.19665-1.0733 0.44346-1.0733 0.44735 0 0.62976 0.17378 0.56 0.53348-0.11422 0.58895-0.66048 0.88284-1.0035 0.53985zm-3.9-0.43334c-0.10877-0.176-0.05377-0.32 0.12223-0.32 0.176 0 0.409 0.144 0.51777 0.32s0.05377 0.32-0.12223 0.32-0.409-0.144-0.51777-0.32zm8.48-0.30111c0-0.86166 0.60536-1.1507 1.1886-0.56746 0.58322 0.58322 0.2942 1.1886-0.56746 1.1886-0.40148 0-0.62111-0.21963-0.62111-0.62111zm2.08 0.30111c0.10878-0.176 0.51327-0.3178 0.89889-0.3151 0.56999 4e-3 0.61135 0.06291 0.22111 0.3151-0.63044 0.40742-1.3718 0.40742-1.12 0zm-8.4247-0.53094c0.13486-0.70029 1.0647-0.79936 1.0647-0.11344 0 0.26159-0.26508 0.52667-0.58906 0.58906-0.42765 0.08235-0.55797-0.04797-0.47562-0.47562zm-3.131-0.5215c0.01964-0.38916 0.23971-0.70756 0.48904-0.70756 0.71099 0 0.77106 0.72161 0.0904 1.0859-0.52342 0.28012-0.60983 0.2237-0.57944-0.37834zm1.6185 0.38456c-0.32977-0.53358 0.41191-1.1454 0.85335-0.704 0.36926 0.36925 0.13815 1.0519-0.35612 1.0519-0.15523 0-0.37898-0.15655-0.49723-0.34788zm5.9372-0.27323c0-0.80678 0.54867-1.1331 1.115-0.66304 0.58265 0.48356 0.26517 1.2842-0.50923 1.2842-0.38629 0-0.60576-0.22503-0.60576-0.62111zm5.3343-0.15271c-0.24222-0.63122 0.62064-1.4941 1.2519-1.2519 0.72087 0.27662 0.42756 1.5266-0.38545 1.6426-0.38429 0.05483-0.76054-0.11486-0.8664-0.39074zm-14.081-0.079513c-0.3682-0.3682-0.23304-0.74667 0.26667-0.74667 0.264 0 0.48 0.216 0.48 0.48 0 0.4997-0.37846 0.63487-0.74667 0.26667zm6.8267-0.42667c0-0.52683 0.16586-0.66096 0.72-0.58226 0.396 0.05624 0.72 0.31826 0.72 0.58226s-0.324 0.52602-0.72 0.58226c-0.55414 0.0787-0.72-0.05543-0.72-0.58226zm-1.4925-0.18151c-0.26671-0.69503 0.41038-1.3486 0.89502-0.864 0.40961 0.40961 0.15586 1.3655-0.36249 1.3655-0.18705 0-0.42669-0.22568-0.53253-0.50151zm6.8259 0.28818c-0.40601-0.40601-0.21118-1.4076 0.31294-1.6087 0.7219-0.27702 1.5196 0.80484 1.0291 1.3958-0.38103 0.45911-0.99799 0.55699-1.3421 0.21292zm-13.173-0.42667c-0.10877-0.176-0.04527-0.32 0.14111-0.32 0.18639 0 0.33889 0.144 0.33889 0.32s-0.0635 0.32-0.14112 0.32c-0.07761 0-0.23011-0.144-0.33888-0.32zm4.6946-0.09426c-0.40989-0.49388 0.04448-1.3601 0.54966-1.0479 0.42594 0.26325 0.46934 1.0342 0.07203 1.2797-0.15606 0.09645-0.43582-0.0079-0.6217-0.23185zm-1.6155-0.33871c-0.38898-0.46869-0.16819-0.84703 0.4943-0.84703 0.4767 0 0.58412 0.82492 0.14292 1.0976-0.15606 0.09645-0.44281-0.01629-0.63722-0.25056zm7.9565-0.05243c-0.35149-0.42352-0.33348-0.59378 0.10969-1.0369 0.62312-0.62312 1.3025-0.17502 1.1248 0.74184-0.14963 0.77183-0.72475 0.90932-1.2345 0.29511zm-9.4355-0.1546c-0.23334-0.37756 0.06933-0.96 0.49888-0.96 0.16561 0 0.30112 0.288 0.30112 0.64 0 0.67491-0.46556 0.86113-0.8 0.32zm-2.8663-0.29789c-0.23665-0.38291 0.36532-0.76231 0.79155-0.49889 0.35788 0.22118 0.12293 0.79677-0.32522 0.79677-0.15523 0-0.36508-0.13405-0.46634-0.29789zm1.4263-0.20878c0-0.5651 0.68888-0.46668 0.88667 0.12666 0.06967 0.209-0.10133 0.38-0.38 0.38-0.27867 0-0.50667-0.228-0.50667-0.50666zm8.7565 0.0288c-0.11084-0.28883-0.04808-0.6786 0.13946-0.86614 0.48755-0.48756 1.4113-0.04195 1.284 0.61936-0.14186 0.7366-1.1673 0.91438-1.4234 0.24678zm7.6878 0.02032c-0.31861-0.8303 0.12796-1.5165 0.91424-1.4049 0.52887 0.0751 0.72143 0.31597 0.72143 0.90244s-0.19256 0.82734-0.72143 0.90244c-0.43273 0.06145-0.79859-0.09862-0.91424-0.4zm-9.4-0.17977c-0.58081-0.35896-0.13228-1.3543 0.55101-1.2227 0.30651 0.05903 0.60202 0.33955 0.65668 0.62339 0.11699 0.60747-0.6104 0.96842-1.2077 0.59928zm11.836 0.05538c0-0.38674 0.6071-0.83763 0.82902-0.61571 0.08054 0.08054-0.07304 0.3286-0.34129 0.55122-0.30412 0.2524-0.48774 0.27668-0.48774 0.06449zm-13.64-0.52814c-0.09693-0.2526-0.08687-0.60389 0.02236-0.78063 0.26157-0.42324 1.1381-0.07612 1.1381 0.4507 0 0.60121-0.95246 0.872-1.1605 0.32993zm9.0538 0.25674c-0.39163-0.39162-0.21944-1.4044 0.27074-1.5925 0.77535-0.29753 1.4845 0.47718 1.0979 1.1994-0.32528 0.60779-0.96907 0.79268-1.3687 0.39306zm-10.94-0.43683c-0.12428-0.20108-0.07538-0.51618 0.10865-0.70021 0.43005-0.43005 1.4327-0.05494 1.2577 0.47054-0.17811 0.53494-1.0836 0.68714-1.3664 0.22967zm-5.7401-0.28772c-0.23665-0.38291 0.36532-0.76231 0.79156-0.49889 0.35787 0.22118 0.12293 0.79677-0.32522 0.79677-0.15523 0-0.36508-0.13405-0.46634-0.29789zm1.4263-0.18211c0-0.29333 0.1548-0.48173 0.344-0.41866 0.1892 0.06307 0.344 0.25146 0.344 0.41866s-0.1548 0.3556-0.344 0.41867c-0.1892 0.06307-0.344-0.12533-0.344-0.41867zm1.28 0c0-0.264 0.216-0.48 0.48-0.48s0.48 0.216 0.48 0.48-0.216 0.48-0.48 0.48-0.48-0.216-0.48-0.48zm1.502 0.27537c-0.29864-0.29864 0.06225-0.75537 0.59685-0.75537 0.25361 0 0.46112 0.216 0.46112 0.48 0 0.48199-0.67552 0.65782-1.058 0.27537zm10.143-0.25172c-0.29114-0.75868 0.1208-1.5249 0.75424-1.4029 0.35425 0.06822 0.56097 0.39961 0.56097 0.89927 0 0.9122-1.01 1.299-1.3152 0.50365zm-2.2573-0.68516c-0.10585-0.27583-0.03901-0.65495 0.14853-0.84249 0.49774-0.49774 1.344-0.06079 1.344 0.69396 0 0.78919-1.2008 0.90869-1.4925 0.14853zm-13.023-0.04052c-0.36038-0.36038-0.21948-0.73797 0.27537-0.73797 0.264 0 0.48 0.1355 0.48 0.30111 0 0.40351-0.49971 0.69251-0.75537 0.43685zm11.112-0.25583c-0.11084-0.28884-0.06248-0.6642 0.10746-0.83414 0.44782-0.44781 1.4249 0.02173 1.308 0.62859-0.13565 0.70436-1.1666 0.85407-1.4155 0.20555zm10.136 0.01331c-0.33491-0.40354-0.33491-0.58735 0-0.99089 0.64158-0.77307 1.7472-0.45956 1.7472 0.49543s-1.1056 1.2685-1.7472 0.49544zm2.5574 0.08344c-0.0056-0.29761 0.1434-0.63603 0.33111-0.75204 0.56402-0.34859 0.6431 0.01888 0.14558 0.67652-0.40959 0.5414-0.46776 0.55061-0.4767 0.07553zm-22.73-0.41889c0-0.32959 0.20973-0.48654 0.56-0.41908 0.67451 0.1299 0.63198 0.69782-0.0631 0.84254-0.28991 0.060368-0.4969-0.11603-0.4969-0.42346zm1.6-0.16c0-0.41244 0.16205-0.63932 0.4-0.56 0.22 0.07334 0.4 0.32534 0.4 0.56 0 0.23467-0.18 0.48667-0.4 0.56-0.23795 0.07932-0.4-0.14756-0.4-0.56zm1.4141 0.27814c-0.27274-0.4413 0.35367-1.05 0.79799-0.77537 0.19134 0.11825 0.34788 0.3351 0.34788 0.48188 0 0.42568-0.91874 0.661-1.1459 0.29349zm1.6859 0.15519c-0.45296-0.45297-0.19665-1.0733 0.44346-1.0733 0.44735 0 0.62976 0.17378 0.56 0.53348-0.11422 0.58895-0.66048 0.88284-1.0035 0.53985zm1.5796-0.28545c-0.10943-0.28517 0.01978-0.57217 0.30727-0.68249 0.59756-0.2293 1.2514 0.33953 0.95033 0.82672-0.31401 0.50808-1.0392 0.4249-1.2576-0.14423zm1.8804 0.17211c-0.26785-0.4334 0.09358-0.96 0.65888-0.96 0.25361 0 0.46112 0.288 0.46112 0.64 0 0.6625-0.772 0.88307-1.12 0.32zm9.5643-0.45756c-0.31861-0.83029 0.12796-1.5165 0.91424-1.4049 0.52887 0.0751 0.72143 0.31597 0.72143 0.90244 0 0.58647-0.19256 0.82734-0.72143 0.90244-0.43273 0.06145-0.79859-0.09862-0.91424-0.4zm-2.3003-0.24644c-0.78793-0.78793-0.01219-2.0616 1.0154-1.6673 0.66738 0.2561 0.67781 1.6025 0.0144 1.857-0.64446 0.2473-0.58108 0.25898-1.0298-0.18976zm-17.46-0.416c-0.10131-0.264-0.04471-0.48 0.12576-0.48 0.17048 0 0.30996 0.216 0.30996 0.48s-0.05659 0.48-0.12576 0.48c-0.06917 0-0.20865-0.216-0.30996-0.48zm0.95572 0.22472c-0.08677-0.1404-0.02927-0.4632 0.12779-0.71732 0.21585-0.34926 0.37575-0.37186 0.655-0.0926 0.20319 0.20319 0.27269 0.52599 0.15444 0.71732-0.25269 0.40886-0.71363 0.4544-0.93723 0.0926zm1.4-0.70472c0-0.35556 0.21333-0.64 0.48-0.64 0.26667 0 0.48 0.28444 0.48 0.64 0 0.35556-0.21333 0.64-0.48 0.64-0.26667 0-0.48-0.28444-0.48-0.64zm12.602 0.17532c-0.24418-0.63634 0.11756-1.1353 0.82305-1.1353 0.62906 0 0.96852 0.54932 0.74155 1.2-0.19249 0.55182-1.3463 0.50413-1.5646-0.06468zm-11.122-0.1106c-0.25301-0.40937 0.3339-1.1281 0.72422-0.88683 0.51373 0.3175 0.43768 1.1421-0.10534 1.1421-0.25361 0-0.53211-0.11488-0.61888-0.25528zm1.5704-0.04783c-0.28136-0.45524 0.07743-0.97689 0.67191-0.97689 0.28037 0 0.44098 0.22482 0.38111 0.53348-0.12465 0.64271-0.76357 0.91175-1.053 0.44341zm1.7913-0.12665c-0.44317-0.53399 0.08646-1.3123 0.726-1.0669 0.28176 0.10812 0.5123 0.4017 0.5123 0.65239 0 0.61874-0.83643 0.89874-1.2383 0.41452zm3.5948-0.04811c-0.11084-0.28884-0.04808-0.6786 0.13946-0.86614 0.48755-0.48756 1.4113-0.04195 1.284 0.61936-0.14186 0.7366-1.1673 0.91438-1.4234 0.24678zm1.9813 0.18674c-0.3059-0.49495 0.18049-1.3089 0.78215-1.3089 0.60167 0 1.088 0.81393 0.78215 1.3089-0.09896 0.16012-0.45093 0.29112-0.78215 0.29112-0.33122 0-0.68319-0.131-0.78215-0.29112zm-3.8641-0.35904c-0.12428-0.20108-0.07538-0.51618 0.10865-0.70021 0.43005-0.43005 1.4327-0.05494 1.2577 0.47054-0.17811 0.53494-1.0836 0.68714-1.3664 0.22967zm14.877-0.16122c-0.58143-0.70058-0.02-1.5886 1.0043-1.5886 0.6368 0 0.76512 0.161 0.76512 0.96 0 0.7296-0.16032 0.98291-0.668 1.0554-0.3674 0.05249-0.86305-0.13958-1.1014-0.42683zm-23.991-0.33528c0-0.5651 0.68888-0.46668 0.88667 0.12666 0.06967 0.209-0.10133 0.38-0.38 0.38-0.27867 0-0.50667-0.228-0.50667-0.50666zm26.56 0.20555c0-0.16561 0.14235-0.3891 0.31634-0.49662 0.1814-0.11211 0.23504 0.01635 0.12576 0.30111-0.21273 0.55437-0.4421 0.6558-0.4421 0.19551zm-25.223-0.51579c0.14473-0.69508 0.71265-0.73761 0.84254-0.0631 0.06746 0.35027-0.08949 0.56-0.41908 0.56-0.30743 0-0.48383-0.20699-0.42346-0.4969zm19.882-0.02659c-0.21381-0.55717 0.20276-1.4438 0.76669-1.6317 0.187-0.06233 0.57242 0.11909 0.8565 0.40317 0.39172 0.39172 0.43663 0.66577 0.18588 1.1343-0.40333 0.75364-1.5335 0.81254-1.8091 0.09428zm-18.516-0.14439c-0.27926-0.45185 0.3375-1.0686 0.78935-0.78935 0.50753 0.31367 0.42553 1.1372-0.11323 1.1372-0.25361 0-0.55787-0.15655-0.67612-0.34788zm16.257 0.13455c-0.58856-0.23542-0.48697-1.6048 0.13681-1.8442 0.7839-0.30081 1.6291 0.63609 1.1949 1.3245-0.38283 0.60691-0.75278 0.75129-1.3317 0.51971zm-19.739-0.65286c-0.17366-0.45606-0.1369-0.49282 0.17914-0.17914 0.21869 0.21707 0.31702 0.47528 0.21849 0.5738-0.09852 0.09852-0.27746-0.07908-0.39763-0.39467zm5.0822 0.19832c-0.11825-0.19134-0.0673-0.49559 0.11323-0.67612 0.40372-0.40372 1.024-0.06276 1.024 0.56289 0 0.53876-0.82356 0.62076-1.1372 0.11323zm12.021-0.12804c-0.53171-0.64067-0.17753-1.4441 0.63662-1.4441 0.36305 0 0.74368 0.21783 0.84584 0.48407 0.18388 0.47918-0.3797 1.4359-0.84584 1.4359-0.1329 0-0.41938-0.21417-0.63662-0.47593zm-16.323-0.29741c0-0.27867 0.228-0.50667 0.50667-0.50667 0.5651 0 0.46668 0.68888-0.12667 0.88667-0.209 0.06967-0.38-0.10133-0.38-0.38zm5.9954 0.26205c-0.3004-0.30039 0.10844-1.0887 0.56462-1.0887 0.45618 0 0.86501 0.78832 0.56462 1.0887-0.10521 0.10521-0.35928 0.19129-0.56462 0.19129-0.20533 0-0.45941-0.08608-0.56462-0.19129zm1.909-0.01098c-0.50391-0.5039-0.20481-1.1195 0.4956-1.02 0.396 0.05624 0.72 0.31628 0.72 0.57787 0 0.5084-0.8428 0.81492-1.2156 0.44211zm2.049-0.09701c-0.54485-0.33687-0.23533-1.3007 0.4177-1.3007 0.70259 0 0.96521 0.64088 0.46679 1.1391-0.27499 0.2749-0.604 0.335-0.88449 0.16159zm1.92 0.0067c-0.60283-0.3817-0.20466-1.3074 0.56235-1.3074 0.74002 0 1.0954 0.74088 0.59527 1.241-0.42869 0.42869-0.57243 0.43694-1.1576 0.06639zm2.0082-0.17207c-0.24418-0.63633 0.11756-1.1353 0.82305-1.1353 0.71595 0 1.058 0.7494 0.56635 1.241-0.49962 0.49962-1.1769 0.44811-1.3894-0.10568zm-12.602-0.65535c0-0.32959 0.20973-0.48654 0.56-0.41908 0.67451 0.1299 0.63198 0.69782-0.0631 0.84254-0.28991 0.060368-0.4969-0.11603-0.4969-0.42346zm-2.3554-0.06203c-0.36038-0.36038-0.21948-0.73797 0.27537-0.73797 0.264 0 0.48 0.1355 0.48 0.30111 0 0.40351-0.49971 0.69251-0.75537 0.43685zm4.0107-0.30891c0.06239-0.32398 0.32747-0.58906 0.58906-0.58906 0.68592 0 0.58685 0.92982-0.11344 1.0647-0.42765 0.08235-0.55798-0.04797-0.47562-0.47562zm22.573 0.3323c-0.44712-0.44712-0.21798-1.7042 0.36777-2.0177 0.84185-0.45054 1.7371 0.26485 1.5946 1.2743-0.07935 0.56216-0.33871 0.8087-0.92236 0.87676-0.44659 0.05208-0.91459-0.0079-1.04-0.13334zm-20.808-0.32802c-0.45296-0.45297-0.19665-1.0733 0.44346-1.0733 0.44735 0 0.62976 0.17378 0.56 0.53348-0.11422 0.58895-0.66048 0.88284-1.0035 0.53985zm17.902-0.38706c-0.62915-0.6952-0.40538-1.5386 0.48304-1.8205 1.326-0.42085 2.1575 1.4293 0.93612 2.083-0.80273 0.42961-0.79085 0.4318-1.4192-0.26246zm-22.602-0.20628c0-0.264 0.216-0.48 0.48-0.48s0.48 0.216 0.48 0.48-0.216 0.48-0.48 0.48-0.48-0.216-0.48-0.48zm6.221 0.12929c-0.11921-0.19289-0.01971-0.54768 0.22112-0.78843 0.55512-0.55494 1.4073-0.08408 1.1345 0.62684-0.2249 0.58607-1.0337 0.68248-1.3557 0.16159zm13.775-0.09242c-0.79575-0.58187-0.48207-1.6169 0.52555-1.7342 0.88118-0.10252 1.3624 0.52126 1.0434 1.3526-0.25666 0.66884-0.9466 0.83666-1.5689 0.38161zm-18.496-0.083538c-0.45296-0.45297-0.19665-1.0733 0.44346-1.0733 0.44735 0 0.62976 0.17378 0.56 0.53348-0.11422 0.58895-0.66048 0.88284-1.0035 0.53985zm6.6165-0.27119c-0.11084-0.28884-0.04808-0.6786 0.13946-0.86614 0.48755-0.48755 1.4113-0.04195 1.284 0.61936-0.14186 0.7366-1.1673 0.91438-1.4234 0.24678zm2.3368 0.26452c-0.33599-0.33599-0.24905-1.3268 0.13737-1.5656 0.19289-0.11921 0.57652 0.0091 0.85251 0.28506 0.41338 0.41338 0.42926 0.58921 0.09011 0.99786-0.44612 0.53754-0.74653 0.61619-1.08 0.28273zm6.8044-0.29349c-0.29743-0.35838-0.32564-0.6574-0.09632-1.021 0.46914-0.74373 0.93295-0.81214 1.5208-0.22429 0.39172 0.39172 0.43663 0.66577 0.18588 1.1343-0.40117 0.7496-1.0436 0.79386-1.6104 0.11095zm-18.664-0.32119c-0.27368-0.71321-0.25187-0.77199 0.28647-0.77199 0.264 0 0.48 0.2075 0.48 0.46111 0 0.677-0.54167 0.89669-0.76647 0.31088zm13.683 0.02896c-0.11058-0.28818-0.05324-0.67178 0.12744-0.85245 0.52163-0.52165 1.5165-0.17008 1.5165 0.53589 0 0.81398-1.3531 1.0745-1.6439 0.31655zm2.3466 0.04709c-0.09831-0.2562-0.0048-0.70365 0.20771-0.99434 0.53139-0.72672 1.5539-0.30593 1.4265 0.58704-0.11372 0.79707-1.365 1.1089-1.6342 0.40729zm-11.523-0.094706c-0.45296-0.45297-0.19665-1.0733 0.44346-1.0733 0.44735 0 0.62976 0.17378 0.56 0.53348-0.11422 0.58895-0.66048 0.88284-1.0035 0.53985zm1.725-0.56326c-0.45116-0.54361-0.2112-1.1501 0.45504-1.1501 0.69287 0 0.92296 0.65418 0.41038 1.1668-0.40714 0.40714-0.5154 0.40505-0.86541-0.0167zm-5.084-0.43008c0.05932-0.308 0.3199-0.56 0.57908-0.56s0.51977 0.252 0.57908 0.56c0.07567 0.39291-0.09711 0.56-0.57908 0.56-0.48197 0-0.65475-0.16709-0.57908-0.56zm6.7756-0.23786c-0.11084-0.28884-0.048081-0.6786 0.13946-0.86614 0.48755-0.48756 1.4113-0.04195 1.284 0.61936-0.14186 0.7366-1.1673 0.91438-1.4234 0.24678zm20.546-0.025c-0.60129-0.60128-0.64038-1.1516-0.11886-1.6731 0.75942-0.75942 1.216-0.423 1.216 0.896 0 1.3711-0.29457 1.5797-1.0971 0.77714zm-28.663-0.68571c0-0.80029 0.04071-0.82786 0.51786-0.35071 0.28483 0.28482 0.42033 0.67568 0.30112 0.86857-0.39271 0.63542-0.81898 0.36588-0.81898-0.51786zm2.88 0.20511c0-0.45795 0.17232-0.63028 0.55632-0.55633 0.83416 0.16064 0.92718 1.2198 0.10714 1.2198-0.45795 0-0.66346-0.20551-0.66346-0.66346zm7.1707 0.22244c-0.259-0.67494 0.10454-1.159 0.87046-1.159 0.48343 0 0.61795 0.17817 0.54112 0.71673-0.11934 0.83647-1.1379 1.1556-1.4116 0.44224zm2.24-0.32c-0.259-0.67494 0.10454-1.159 0.87046-1.159 0.48343 0 0.61795 0.17817 0.54112 0.71673-0.11934 0.83647-1.1379 1.1556-1.4116 0.44224zm13.12 0.0012c-0.3835-0.99944 0.004531-1.6402 0.99327-1.6402 0.84846 0 0.95562 0.10764 0.95562 0.96 0 0.80988-0.13789 0.97586-0.88182 1.0614-0.56275 0.06473-0.94884-0.07324-1.0671-0.38131zm-20.931-0.52017c0-0.74543 1.1121-0.89916 1.3837-0.19129 0.21578 0.56232-0.04211 0.83128-0.79705 0.83128-0.37333 0-0.58667-0.23273-0.58667-0.64zm10.036 0.16093c-0.11058-0.28817-0.05324-0.67178 0.12744-0.85245 0.52163-0.52163 1.5165-0.17007 1.5165 0.5359 0 0.81397-1.3531 1.0745-1.6439 0.31655zm2.5683 0.02151c-0.31861-0.8303 0.12796-1.5165 0.91424-1.4049 0.52887 0.0751 0.72143 0.31597 0.72143 0.90244 0 0.58647-0.19256 0.82734-0.72143 0.90244-0.43273 0.06145-0.79859-0.09862-0.91424-0.4zm2.5514-0.022444c-0.30319-0.79009 0.1335-1.44 0.96757-1.44 0.89252 0 1.2036 0.54077 0.78221 1.36-0.35253 0.68543-1.4974 0.73777-1.7498 0.08zm2.7643-0.45333c0-0.96958 0.41783-1.3016 1.3379-1.0631 1.3087 0.33931 0.96667 1.9964-0.4121 1.9964-0.80942 0-0.92576-0.1173-0.92576-0.93333zm-21.28 0.29333c-0.26785-0.4334 0.09358-0.96 0.65888-0.96 0.25361 0 0.46112 0.288 0.46112 0.64 0 0.6625-0.772 0.88307-1.12 0.32zm5.28-0.64c0-0.42667 0.21333-0.64 0.64-0.64 0.42667 0 0.64 0.21333 0.64 0.64 0 0.42667-0.21333 0.64-0.64 0.64-0.42667 0-0.64-0.21333-0.64-0.64zm-3.7276-0.16865c-0.23456-0.61124 0.40691-1.1376 1.0743-0.88148 0.6041 0.23182 0.37947 1.1771-0.31133 1.3101-0.30651 0.05903-0.64984-0.13385-0.76295-0.42862zm5.872 0.28637c-0.12342-0.12342-0.2244-0.49841-0.2244-0.83332 0-0.44844 0.18976-0.58197 0.72-0.50667 0.47069 0.06685 0.72 0.32235 0.72 0.73787 0 0.63475-0.79111 1.0266-1.2156 0.60211zm-8.5444-0.59773c0-0.264 0.144-0.48 0.32-0.48s0.32 0.216 0.32 0.48-0.144 0.48-0.32 0.48-0.32-0.216-0.32-0.48zm10.362-0.30468c-0.24813-0.64662 0.1209-1.1353 0.85728-1.1353 0.44919 0 0.62112 0.22144 0.62112 0.8 0 0.59079-0.17 0.8-0.65004 0.8-0.35752 0-0.73028-0.2091-0.82836-0.46468zm-9.3353-0.2554c-0.47436-0.57156 0.04387-1.3489 0.72502-1.0875 0.57481 0.22058 0.55843 1.1981-0.02333 1.3917-0.19358 0.06445-0.50935-0.07245-0.7017-0.30422zm3.4537-0.23992c0-0.52683 0.16586-0.66096 0.72-0.58226 0.396 0.05624 0.72 0.31826 0.72 0.58226s-0.324 0.52602-0.72 0.58226c-0.55414 0.0787-0.72-0.05543-0.72-0.58226zm8.1148 0.15763c-0.11128-0.28999 0.0078-0.73738 0.26462-0.9942 0.64029-0.64029 1.6007-0.22604 1.4775 0.6373-0.12137 0.85061-1.4483 1.1225-1.7421 0.3569zm2.5695-0.29519c-0.31861-0.83029 0.12796-1.5165 0.91424-1.4049 0.52887 0.0751 0.72143 0.31597 0.72143 0.90244 0 0.58647-0.19256 0.82734-0.72143 0.90244-0.43273 0.06145-0.79859-0.09862-0.91424-0.4zm11.605-0.12764c-0.68691-0.75902-0.66772-1.1106 0.09848-1.804 0.72174-0.65316 1.4174-0.49222 1.9183 0.4438 0.28086 0.5248 0.22298 0.77603-0.29906 1.2981-0.79702 0.79702-1.0446 0.80598-1.7177 0.06214zm-20.312-0.45153c0.12247-0.85838 1.059-1.1304 1.343-0.3901 0.27016 0.70401-0.02169 1.1068-0.80192 1.1068-0.48343 0-0.61795-0.17818-0.54112-0.71673zm11.258 0.23673c-0.30635-0.79833 0.13669-1.44 0.99424-1.44 0.68671 0 0.81004 0.14616 0.81004 0.96 0 0.81384-0.12333 0.96-0.81004 0.96-0.44553 0-0.89293-0.216-0.99424-0.48zm2.7548-0.01138c-0.58143-0.70058-0.02001-1.5886 1.0043-1.5886 0.6368 0 0.76512 0.161 0.76512 0.96 0 0.7296-0.16032 0.98291-0.668 1.0554-0.3674 0.05249-0.86305-0.13958-1.1014-0.42682zm2.9121-0.10626c-0.42769-0.79914-0.15084-1.5586 0.66225-1.8166 0.86526-0.27462 1.6066 0.4347 1.4913 1.4269-0.12618 1.0855-1.635 1.3586-2.1535 0.38975zm-20.919-0.15138c-0.24612-0.64138 0.28005-1.2917 0.86386-1.0677 0.73836 0.28334 0.66259 1.4967-0.09347 1.4967-0.33317 0-0.67985-0.19306-0.77039-0.42902zm6.1795-0.04691c-0.51962-0.6261-0.1841-1.4441 0.59234-1.4441 0.81917 0 1.0987 0.81985 0.48783 1.4307-0.59932 0.59932-0.59389 0.59926-1.0802 0.01333zm2.2756-0.57308c-0.53087-0.53087-0.4357-1.4131 0.17782-1.6485 0.68202-0.26172 1.4686 0.50261 1.2102 1.176-0.26234 0.68364-0.94464 0.91593-1.388 0.47255zm-10.274-0.31099c0.0027-0.22 0.1407-0.6148 0.30668-0.87733 0.39491-0.62464 1.1405 0.04725 0.86096 0.77582-0.22835 0.59507-1.1747 0.67734-1.1676 0.10151zm3.6226-0.10151c-0.10585-0.27583-0.039006-0.65495 0.14853-0.84249 0.49774-0.49774 1.344-0.06079 1.344 0.69396 0 0.78919-1.2008 0.90869-1.4925 0.14853zm8.8303-0.32531c-0.48788-0.58786-0.07179-1.5096 0.75497-1.6725 0.72262-0.14235 1.3473 1.121 0.85032 1.7198-0.49786 0.59989-1.0825 0.58267-1.6053-0.04728zm-6.6977-0.29318c-0.31782-0.38295-0.31782-0.57705 0-0.96 0.52211-0.6291 1.1614-0.61073 1.4113 0.04056 0.19581 0.51028-0.29424 1.3994-0.77128 1.3994-0.1329 0-0.4209-0.216-0.64-0.48zm-3.9467-0.05333c-0.46173-0.46174-0.19998-1.3867 0.39243-1.3867 0.73166 0 1.0824 0.74381 0.58523 1.241-0.41087 0.41087-0.67335 0.44997-0.97766 0.14566zm13.031-0.24524c-0.34353-0.89523 0.12849-1.5116 1.0742-1.4029 0.70023 0.08054 0.88182 0.26618 0.88182 0.90143 0 0.63526-0.18159 0.82089-0.88182 0.90143-0.57506 0.06615-0.94876-0.073-1.0742-0.4zm2.8789-0.32274c-0.31062-0.80946 0.02256-1.6157 0.70838-1.7141 0.85719-0.12307 1.52 0.68067 1.2536 1.5201-0.24407 0.76901-1.6866 0.91168-1.962 0.19405zm-9.9367-0.36351c-0.10654-0.27765 0.04198-0.7405 0.33004-1.0286 0.48501-0.48501 0.5625-0.48501 1.0475 0 0.65423 0.65423 0.35394 1.5334-0.52376 1.5334-0.36305 0-0.74726-0.22717-0.8538-0.50481zm12.825 0.06494c-0.3835-0.99939 0.004531-1.6401 0.99327-1.6401 0.84846 0 0.95562 0.10764 0.95562 0.96 0 0.80988-0.13789 0.97586-0.88182 1.0614-0.56275 0.06473-0.94884-0.07324-1.0671-0.38131zm3.2688-0.04595c-0.62878-0.62878-0.6416-0.82539-0.10196-1.5634 0.8774-1.1999 3.0536 0.07563 2.2678 1.3292-0.47374 0.75573-1.53 0.86994-2.1658 0.23417zm3.3347 0.02344c-0.21106-0.25431-0.33669-0.78152-0.27918-1.1716 0.09092-0.61665 0.17695-0.55632 0.65939 0.46239 0.55593 1.1739 0.3399 1.5769-0.3802 0.70918zm-23.708-0.35368c-0.33826-0.40758-0.32684-0.58091 0.064-0.97176 0.51628-0.51627 1.5493-0.3042 1.5493 0.31806 0 0.4122-0.63175 1.1498-0.98482 1.1498-0.11925 0-0.40208-0.22323-0.62851-0.49606zm6.7481-0.28614c-0.58411-0.70381-0.17219-1.4578 0.79644-1.4578 0.71753 0 0.81744 0.12006 0.73004 0.87726-0.11573 1.0027-0.92175 1.3092-1.5265 0.58054zm-4.4463-0.46104c-0.6313-0.40007-0.31172-1.461 0.47403-1.5737 0.8024-0.11504 1.2569 0.7751 0.7238 1.4175-0.42181 0.50824-0.60468 0.53209-1.1978 0.1562zm7.0042-0.18138c-0.60254-0.72602-0.274-1.6154 0.59675-1.6154 1.0094 0 1.5812 0.88822 1.0128 1.5732-0.52418 0.63159-1.1077 0.64689-1.6095 0.0422zm-11.523-0.095372c0.0056-0.132 0.22728-0.5273 0.49264-0.87844 0.39541-0.52325 0.53257-0.55735 0.76022-0.18902 0.39346 0.63663 0.056231 1.3075-0.65726 1.3075-0.33317 0-0.60118-0.108-0.59559-0.24zm14.069-0.72104c-0.4602-0.85988 0.11912-1.6735 1.0926-1.5344 0.98464 0.14068 0.95834 1.9741-0.03034 2.1149-0.45218 0.06438-0.82661-0.14023-1.0622-0.58046zm-7.2794 0.10911c-0.56061-0.22621-0.5003-1.6011 0.08-1.8238 0.77332-0.29675 1.44 0.1272 1.44 0.91572 0 0.56315-0.68976 1.2714-1.0662 1.0947-0.029606-0.013895-0.23383-0.097895-0.45383-0.18667zm10.529-0.30144c-0.85167-0.59653-0.8739-1.1405-0.0761-1.8625 0.80993-0.73297 1.9466-0.18646 1.9466 0.93591 0 1.071-0.97488 1.554-1.8705 0.92664zm-15.406-0.28256c-0.57018-0.68702-0.14803-1.5092 0.71192-1.3865 0.82014 0.11699 1.1639 1.1687 0.51618 1.5792-0.59991 0.38018-0.77554 0.35262-1.2281-0.19268zm18.301-0.22808c-0.8625-0.8625-0.19011-2.176 1.1139-2.176 0.51269 0 0.78996 0.23931 0.93174 0.80416 0.34611 1.379-1.0813 2.3362-2.0456 1.3718zm-11.261-0.41192c-0.82868-0.9985 0.57685-2.281 1.4943-1.3635 0.61984 0.61984 0.27502 1.8394-0.52008 1.8394-0.31859 0-0.757-0.21417-0.97424-0.47592zm14.408-0.14304c-0.80594-1.5059-0.06927-1.7707 0.94874-0.34104 0.67955 0.95434 0.67975 0.96 0.03305 0.96-0.35779 0-0.7996-0.27853-0.98179-0.61896zm-19.407-0.47859c-0.31861-0.83029 0.12796-1.5165 0.91424-1.4049 0.52887 0.075101 0.72143 0.31597 0.72143 0.90244s-0.19256 0.82734-0.72143 0.90244c-0.43273 0.06145-0.79859-0.09862-0.91424-0.4zm7.5893-0.30188c-0.84064-1.0129 0.85716-2.3269 1.7949-1.3891 0.68054 0.68054 0.24674 1.8286-0.69095 1.8286-0.40659 0-0.90337-0.19775-1.104-0.43944zm-5.1389-0.66276c-0.86422-1.0413 0.56599-2.2942 1.5246-1.3356 0.40754 0.40754 0.44927 0.65758 0.18089 1.0838-0.46725 0.74197-1.2079 0.85132-1.7055 0.2518zm7.9976-0.15462c-0.63994-1.1957 0.41503-2.2507 1.6108-1.6108 0.69572 0.37233 0.80878 1.2676 0.23282 1.8436-0.57596 0.57596-1.4713 0.4629-1.8436-0.23282zm3.215-0.47013c-0.21811-0.2628-0.34951-0.80976-0.292-1.2154 0.081645-0.57594 0.30733-0.73761 1.0297-0.73761 1.1406 0 1.7953 0.85887 1.2806 1.68-0.45943 0.7329-1.5178 0.87609-2.0182 0.27306zm-8.8884-0.71655c-0.26472-0.68985 0.30375-1.5565 1.021-1.5565 0.31364 0 0.71686 0.23243 0.89605 0.5165 0.48887 0.77502 0.036992 1.5635-0.89605 1.5635-0.46405 0-0.9073-0.22727-1.021-0.5235zm12.055 0.03576c-0.63243-0.76203-0.16852-0.87845 0.68109-0.17092 0.59197 0.49298 0.64735 0.63977 0.24451 0.648-0.28645 0.0059-0.70297-0.20883-0.9256-0.47709zm-16.177-0.31914c0.65762-0.49752 1.0251-0.41844 0.67652 0.14558-0.11601 0.18771-0.45443 0.33671-0.75204 0.33111-0.47509-0.0089-0.46587-0.0671 0.07552-0.47669zm6.9175-0.76662c-0.28198-0.52689-0.22336-0.77734 0.30581-1.3065 0.89491-0.89491 2.0046-0.35684 1.8592 0.90152-0.13004 1.1256-1.6292 1.4061-2.165 0.40499zm-4.7059-0.54437c0.93386-0.50609 1.3974-0.42623 1.0249 0.17656-0.11601 0.18771-0.59843 0.33552-1.072 0.32848l-0.86111-0.012812zm8.0746 0.015c-0.87733-0.87733-0.63334-1.4255 0.53714-1.2068 1.3995 0.26148 1.6622 0.5618 1.0377 1.1863-0.65252 0.65252-0.93917 0.65626-1.5749 0.02057zm-5.3829-0.98908c0.22-0.08877 0.58-0.08877 0.8 0s0.04 0.1614-0.4 0.1614-0.62-0.07263-0.4-0.1614z" fill="#884bfa"/>
 </g>
</svg>
