<?xml version="1.0" encoding="UTF-8"?>
<svg id="svg846" width="61.44" height="61.44" version="1.1" viewBox="0 0 61.44 61.44" xmlns="http://www.w3.org/2000/svg">
 <g id="g854" stroke-width=".32">
  <path id="path1429" d="m26.029 58.429c-10.606-2.0267-18.775-9.0058-22.228-18.991-1.0645-3.0775-1.0785-3.1905-1.0797-8.7179-0.0012015-5.5051 0.016637-5.6515 1.0522-8.64 1.5373-4.4364 3.564-7.6574 6.9466-11.04 3.9829-3.9829 8.2118-6.3524 13.807-7.7363 2.9597-0.73203 9.1065-0.73203 12.066 0 5.5951 1.3838 9.824 3.7534 13.807 7.7363 3.3815 3.3815 5.4501 6.6669 6.8504 10.88 1.3978 4.2056 1.8419 8.0705 1.351 11.76-0.88876 6.6807-3.5139 12.032-8.2015 16.72-3.9519 3.9519-8.2748 6.3861-13.641 7.6815-2.9355 0.70855-7.9835 0.87189-10.729 0.34718z" fill="#f5f5f5"/>
  <path id="path1427" d="m26.4 45.475c-4.4086-1.284-7.291-3.7239-9.3033-7.8752-1.2105-2.4971-1.241-2.6464-1.2422-6.08-7.04e-4 -1.936 0.12422-4.096 0.27761-4.8 0.3805-1.7463 2.5471-5.3442 4.0189-6.6739 5.3292-4.8146 12.959-5.3954 18.885-1.4376 2.2474 1.5007 4.0185 3.5805 5.3386 6.2688 0.85543 1.7421 0.90409 2.07 0.89063 6.0027-0.01315 3.8403-0.08506 4.3302-0.93567 6.3741-1.1017 2.6472-3.9424 5.7373-6.4329 6.9976-3.6065 1.825-7.8731 2.2791-11.497 1.2236zm9.221-3.6629c2.7005-1.2541 4.658-3.2079 5.9277-5.9163 0.75028-1.6005 0.849-2.1959 0.83172-5.016-0.01744-2.8483-0.11714-3.3893-0.90692-4.9225-1.299-2.5217-3.4016-4.6029-5.8843-5.8244-1.9442-0.95655-2.424-1.058-5.0292-1.0638-2.6281-0.0058-3.0557 0.08443-4.8893 1.0315-2.7874 1.4397-5.2253 4.0155-6.187 6.5369-1.1092 2.9081-1.0519 6.4202 0.14762 9.0423 1.1526 2.5195 3.6909 5.1142 6.1287 6.2646 1.6426 0.77514 2.3276 0.90818 4.741 0.92074 2.5415 0.01322 3.0487-0.09108 5.12-1.053zm-10.292-7.3879c-2.2919-2.2405-2.412-2.427-2.1138-3.28 0.50665-1.4489 1.613-1.3411 3.5321 0.34417l1.6276 1.4293 2.8524-2.8821c1.5688-1.5852 3.4012-3.3228 4.072-3.8614 1.0563-0.84812 1.3241-0.93165 2-0.62371 1.2836 0.58482 0.95955 1.5406-1.3594 4.0104-2.9277 3.118-7.3789 7.2389-7.8192 7.2389-0.19892 0-1.4552-1.069-2.7917-2.3756z" fill="#7c3aed"/>
 </g>
</svg>
