<?xml version="1.0" encoding="UTF-8"?>
<svg id="svg1431" width="61.44" height="61.44" version="1.1" viewBox="0 0 61.44 61.44" xmlns="http://www.w3.org/2000/svg">
 <g id="g1439" stroke-width=".32">
  <path id="path2006" d="m27.04 58.548c-11.787-1.8047-21.14-10.236-23.837-21.486-0.87446-3.6476-0.86994-9.0497 0.010653-12.742 2.038-8.5444 8.5487-16.147 16.62-19.407 3.8862-1.5697 6.6354-2.1107 10.727-2.1107s6.8405 0.54094 10.727 2.1107c10.302 4.1612 17.376 14.667 17.376 25.807s-7.0737 21.646-17.376 25.807c-4.5354 1.8319-10.217 2.6377-14.247 2.0206z" fill="#f5f5f5"/>
  <path id="path2004" d="m26.846 44.976c-2.4161-0.66629-4.8066-2.1252-6.8456-4.1778-5.7889-5.8275-5.7889-14.329 0-20.157 3.0574-3.0778 6.6037-4.634 10.56-4.634s7.5026 1.5562 10.56 4.634c5.7889 5.8275 5.7889 14.329 0 20.157-3.9446 3.9709-9.3199 5.5441-14.274 4.1778z" fill="#7c3aed"/>
 </g>
</svg>
