<?xml version="1.0" encoding="UTF-8"?>
<svg width="512" height="512" desc="Created with imagetracer.js version 1.2.5" version="1.1" xmlns="http://www.w3.org/2000/svg">
 <path d="m371.5 122h32l9 9h1.5l3 10.5v216l-6 12-4.5 4.5q-3.5 4.5-13 3l-1-1-25-2-1-1-24-2-9-2h-8l-1-1-24-2-9-2h-8l-17-3h-8l-8-2-31-3-23-4-15-1-1-1h-9l-2.5 2.5-40 81.5-8-1-1-2.5v-12l1-1 1-22 1-1v-10l1-1 3-38.5-9.5-2-42-4-7.5-5-7-14.5v-31l1-1 2-118 4-6v-5l3-8 10.5-10.5 7.5-1 0.5-2h10l1-1 38-1 1-1 57-2 1-1h18l1-1h18l1-1h19l1-1h18l1-1h18l1-1h19l1-1h18l1-1h18l1-1h19l1-1zm16.5 26-1 1h-30l-1 1h-23l-1 1h-27l-1 1h-27l-1 1h-27l-1 1h-27l-1 1h-27l-1 1h-27l-1 1h-26l-1 1-51 1-1 4v33l-1 1v22l-1 1v40l-1 1v22l-1 1v24l2 1 14 1 6 2h9l1 1 27 3 2 3 1 46 3-3 26-41h8l23 4 15 1 8 2h7l8 2h7l8 2h7l8 2h7l8 2 29 3 1 1h7l8 2 45 5 16 3 1-5v-195q-1-3-5-2z"/>
 <path d="m162.5 206q8.6-1.1 10.5 4.5l1 2v10.5q8 1.3 11.5-3h7l2.5 1q2.6 2.3 2 8.5l-2.5 3.5-3.5 1q1.1 2.7-1.5 2-4.2 0.7-3.5 6.5l10 8 1 6-2 4.5q-2.7 1.9-9.5 1l-8-5h-3.5v12.5l-4.5 5.5-7 1-3.5-2.5-3-6v-9l-1.5-1.5h-2l-7 5h-5l-5.5-4.5-1-6 3.5-4.5 8.5-4q0.1-4.9-3.5-7l-7.5-5.5-1-6 3.5-4.5 7-1 6 4h5.5q-1.7-11.4 4.5-16l2-1z"/>
 <path d="m235.5 206q8.6-1.1 10.5 4.5l1 2v10.5h6.5l6-4h4l5.5 4.5 1 6-2.5 3.5q-6.1 1.4-8.5 6.5-0.7 5.8 3.5 6.5l6.5 4.5 1 6-3.5 4.5-8 1-2.5-1q1.3-3-2.5-2-2-2.8-6.5-2v12.5l-4.5 5.5-7 1-3.5-2.5-3-6v-9l-1.5-1.5h-2l-7 5h-5l-5.5-3q-1.6-2.1-1-7.5l3.5-4.5 7.5-3q1.5-5.4-1.5-7l-8.5-5q-1.6-2.1-1-7.5l3.5-4.5 7-1 4.5 2 0.5 2h6.5q-1.7-11.4 4.5-16l2-1z"/>
 <path d="m308.5 206q8-1.5 10.5 2.5l3 7v7.5h4.5l7-4h5l3.5 2.5 1 8-5.5 6.5-5.5 3.5q-0.7 3.8 1.5 4.5l7.5 4q2.6 2.3 2 8.5l-2 4.5q-2.4 1.8-8.5 1-2.7-4.5-10.5-3v6.5l-5.5 8.5-7 1-4.5-3.5-1-2v-12.5h-4.5l-7 5h-7l-2.5-1q-2.6-2.3-2-8.5l6.5-7.5 4.5-2.5q0.8-5.7-3.5-6.5l-5.5-2q-2.6-2.3-2-8.5l4.5-5.5 6-1 7.5 4v2h5v-13.5l2-4.5 2.5-1z"/>
</svg>
