<?xml version="1.0" encoding="UTF-8" standalone="no"?>
<svg
   xmlns:dc="http://purl.org/dc/elements/1.1/"
   xmlns:cc="http://creativecommons.org/ns#"
   xmlns:rdf="http://www.w3.org/1999/02/22-rdf-syntax-ns#"
   xmlns:svg="http://www.w3.org/2000/svg"
   xmlns="http://www.w3.org/2000/svg"
   xmlns:sodipodi="http://sodipodi.sourceforge.net/DTD/sodipodi-0.dtd"
   xmlns:inkscape="http://www.inkscape.org/namespaces/inkscape"
   inkscape:version="1.0 (4035a4fb49, 2020-05-01)"
   sodipodi:docname="pass.svg"
   viewBox="0 0 853.33331 853.33331"
   height="853.33331"
   width="853.33331"
   id="svg830"
   version="1.1">
  <metadata
     id="metadata836">
    <rdf:RDF>
      <cc:Work
         rdf:about="">
        <dc:format>image/svg+xml</dc:format>
        <dc:type
           rdf:resource="http://purl.org/dc/dcmitype/StillImage" />
        <dc:title></dc:title>
      </cc:Work>
    </rdf:RDF>
  </metadata>
  <defs
     id="defs834" />
  <sodipodi:namedview
     inkscape:current-layer="g838"
     inkscape:window-maximized="1"
     inkscape:window-y="-9"
     inkscape:window-x="-9"
     inkscape:cy="414.23947"
     inkscape:cx="426.66666"
     inkscape:zoom="0.96562502"
     showgrid="false"
     id="namedview832"
     inkscape:window-height="1001"
     inkscape:window-width="1920"
     inkscape:pageshadow="2"
     inkscape:pageopacity="0"
     guidetolerance="10"
     gridtolerance="10"
     objecttolerance="10"
     borderopacity="1"
     bordercolor="#666666"
     pagecolor="#ffffff" />
  <g
     id="g838"
     inkscape:label="Image"
     inkscape:groupmode="layer">
    <g
       id="g842">
      <path
         id="path846"
         d="M 0,426.66665 V 0 H 426.66665 853.33331 V 426.66665 853.33331 H 426.66665 0 Z"
         style="fill:#f4f0fd;stroke-width:1.33333" />
      <path
         id="path844"
         d="M 0,426.66665 V 0 H 426.66665 853.33331 V 426.66665 853.33331 H 426.66665 0 Z m 260.07775,233 c 1.48787,-2.38333 14.06387,-27.21331 27.94666,-55.17773 13.88278,-27.96442 26.06686,-51.16115 27.07573,-51.54828 1.00886,-0.38715 27.57405,2.55585 59.03374,6.53997 31.4597,3.98413 97.39944,12.02871 146.53277,17.87684 49.13333,5.84813 91.45613,10.96637 94.05065,11.37385 6.78898,1.06626 15.45074,-5.8437 21.79635,-17.38813 l 4.81967,-8.76832 -0.008,-144.95409 c -0.005,-94.27832 -0.48219,-146.66338 -1.36543,-149.84335 -0.86424,-3.11159 -4.08361,-7.52943 -8.85451,-12.15078 -7.47393,-7.23962 -7.52708,-7.26384 -17.63457,-8.03306 -5.90959,-0.44974 -93.27764,3.58 -209.47138,9.66161 -225.44006,11.7996 -205.65421,9.70111 -218.33333,23.15657 -3.85,4.08574 -7,8.3313 -7,9.43456 0,1.10327 -2.01102,6.41884 -4.46893,11.81238 l -4.46893,9.80643 -1.54671,63.9341 c -0.85068,35.16376 -1.53967,80.74775 -1.53107,101.29777 l 0.0162,37.36366 4.81448,7.96967 c 8.64006,14.30235 9.97894,14.94489 37.38996,17.94404 32.56295,3.56284 43.23135,5.40784 44.08157,7.62349 0.3895,1.01503 0.0253,9.17075 -0.80913,18.12381 -8.45479,90.70608 -8.57496,93.94312 -3.61061,97.25791 3.70886,2.47647 8.85196,1.0006 11.54482,-3.31292 z m 15.92224,-122.13237 c 0,-28.93076 -0.0417,-29.36783 -2.88713,-30.27093 -1.58792,-0.50399 -19.61037,-3.14688 -40.04991,-5.8731 -20.43953,-2.72621 -37.69016,-5.50429 -38.33473,-6.1735 -0.67435,-0.70015 0.14064,-42.18408 1.91952,-97.70541 2.44037,-76.16716 3.46995,-96.83316 4.88852,-98.12441 1.32735,-1.2082 54.15343,-3.47279 202.10442,-8.66396 110.16905,-3.86552 201.21905,-6.67836 202.33333,-6.25078 1.79359,0.68827 2.02363,15.80867 2.00556,131.81929 -0.0107,72.07301 -0.51995,131.82953 -1.13047,132.79228 -0.89337,1.40876 -29.45318,-2.01911 -146.31291,-17.56109 C 322.8,513.20417 315.21136,512.32956 312.9616,514.51431 c -1.30444,1.26676 -9.45743,13.33692 -18.11775,26.82257 -8.66034,13.48566 -16.44306,24.75173 -17.29495,25.03569 -1.14505,0.38168 -1.54891,-7.13753 -1.54891,-28.83829 z m 37.43589,-88.0984 c 3.45696,-3.45695 3.89744,-4.81791 3.89744,-12.04184 0,-9.99292 1.648,-11.0258 9.88764,-6.19705 9.92632,5.81721 18.2179,4.15917 20.27958,-4.05523 1.18364,-4.71597 -1.36634,-9.42584 -6.85726,-12.66557 -9.0872,-5.36157 -8.93288,-9.80751 0.56895,-16.39228 5.83321,-4.04243 7.46511,-7.20365 6.23948,-12.08691 -1.812,-7.21961 -9.94568,-9.55661 -18.27313,-5.25032 -2.21227,1.144 -5.63248,1.894 -7.60046,1.66667 -3.33364,-0.38512 -3.62554,-0.94672 -4.27196,-8.21884 -0.57016,-6.41425 -1.35577,-8.37485 -4.40768,-11 -3.66533,-3.15277 -7.95388,-3.98496 -12.17957,-2.36341 -3.14434,1.2066 -7.38558,10.29385 -7.38558,15.82429 0,6.24423 -2.68852,7.17981 -10.17716,3.54155 -7.66671,-3.72478 -11.8575,-3.61684 -15.88344,0.40912 -6.19424,6.19422 -4.70667,9.56465 9.72726,22.03921 1.65,1.42603 3,3.22165 3,3.99031 0,0.76864 -3.22429,3.46009 -7.1651,5.981 -10.17714,6.51024 -11.54627,11.54384 -4.93746,18.15263 4.82155,4.82156 9.57627,5.00936 16.75876,0.66198 6.47574,-3.9196 8.67714,-2.7056 8.67714,4.78517 0,5.52285 4.09869,15.06993 6.96434,16.22204 4.55368,1.83075 9.41619,0.71951 13.13821,-3.00252 z m 97.33334,0 c 3.45696,-3.45695 3.89744,-4.81791 3.89744,-12.04184 0,-9.99292 1.648,-11.0258 9.88764,-6.19705 3.2563,1.90832 7.79097,3.46966 10.07705,3.46966 5.17648,0 10.70197,-5.18473 10.70197,-10.04195 0,-3.30315 -1.46639,-5.05291 -11.66667,-13.92118 -1.65,-1.43453 -3,-3.28968 -3,-4.12256 0,-1.34844 4.79687,-6.26956 12.13334,-12.44764 3.71026,-3.12444 3.15418,-8.38428 -1.36411,-12.90256 -4.61395,-4.61394 -7.67477,-4.85009 -14.9247,-1.15145 -2.96042,1.51029 -6.68652,2.56029 -8.28022,2.33333 -2.5014,-0.35622 -2.99252,-1.48002 -3.59146,-8.21813 -0.57016,-6.41425 -1.35578,-8.37485 -4.40768,-11 -3.66314,-3.15088 -7.95378,-3.985 -12.1721,-2.36628 -3.0864,1.18436 -6.46578,8.18549 -7.32328,15.17176 -0.8831,7.19485 -3.93521,8.33481 -10.91781,4.0778 -6.02029,-3.67031 -11.19365,-3.49067 -15.21257,0.52827 -3.20082,3.2008 -4.31702,9.20021 -2.25232,12.10581 0.53877,0.7582 3.85872,3.70435 7.37765,6.547 7.93408,6.40925 7.85363,9.26632 -0.39655,14.08108 -9.39973,5.48563 -10.72961,14.35261 -2.85068,19.00681 5.27554,3.11633 9.15891,2.86547 15.448,-0.99796 6.4344,-3.95269 8.7345,-2.67089 8.7345,4.86756 0,5.52285 4.09869,15.06993 6.96434,16.22204 4.55368,1.83075 9.41619,0.71951 13.13822,-3.00252 z m 95.97129,1.19125 c 3.1925,-1.70858 6.82044,-8.46937 7.84912,-14.62714 0.9228,-5.5239 4.36253,-6.63316 10.58724,-3.41424 8.06937,4.17284 15.13817,1.93562 16.97216,-5.37155 1.22788,-4.89229 -1.60716,-10.03676 -8.22394,-14.92313 -6.61916,-4.88813 -7.04078,-6.01823 -3.39177,-9.09108 10.43131,-8.78427 12.13333,-10.99128 12.13333,-15.73333 0,-5.67895 -3.794,-10.13334 -8.631,-10.13334 -1.81372,0 -5.95004,1.28863 -9.19184,2.86362 -7.12593,3.46204 -10.17716,2.64918 -10.17716,-2.71123 0,-5.26841 -4.52494,-15.55688 -7.31248,-16.62656 -3.0039,-1.15269 -10.33236,-1.05548 -12.15458,0.16125 -3.00604,2.00719 -4.53294,7.03755 -4.53294,14.93378 0,10.09597 -1.499,10.9065 -10.09205,5.45694 -8.03088,-5.09302 -11.72456,-5.13297 -16.67717,-0.18036 -5.95176,5.95175 -4.48,14.43316 3.04546,17.55032 2.16168,0.8954 4.86816,3.05931 6.0144,4.8087 2.0275,3.09434 1.87991,3.3707 -5.43661,10.17989 -4.88831,4.54933 -7.52069,8.06204 -7.52069,10.03575 0,3.3805 2.28412,8.33925 4.53293,9.84082 3.0388,2.02905 10.53209,0.89937 16.24609,-2.44925 8.23096,-4.82367 9.88764,-3.79238 9.88764,6.15509 0,6.82483 0.51606,8.61851 3.27274,11.37517 3.44757,3.44759 8.50632,4.19838 12.80112,1.89988 z"
         style="fill:#8649f9;stroke-width:1.33333" />
    </g>
  </g>
</svg>
