<?xml version="1.0" encoding="UTF-8"?>
<svg id="svg830" width="853.33" height="853.33" version="1.1" viewBox="0 0 853.33 853.33" xmlns="http://www.w3.org/2000/svg">
 <g id="g838">
  <g id="g842" stroke-width="1.3333">
   <path id="path846" d="m0 426.67v-426.67h853.33v853.33h-853.33z" fill="#f4f0fd"/>
   <path id="path844" d="m0 426.67v-426.67h853.33v853.33h-853.33zm260.08 233c1.4879-2.3833 14.064-27.213 27.947-55.178 13.883-27.964 26.067-51.161 27.076-51.548 1.0089-0.38715 27.574 2.5558 59.034 6.54 31.46 3.9841 97.399 12.029 146.53 17.877s91.456 10.966 94.051 11.374c6.789 1.0663 15.451-5.8437 21.796-17.388l4.8197-8.7683-8e-3 -144.95c-5e-3 -94.278-0.48219-146.66-1.3654-149.84-0.86424-3.1116-4.0836-7.5294-8.8545-12.151-7.4739-7.2396-7.5271-7.2638-17.635-8.0331-5.9096-0.44974-93.278 3.58-209.47 9.6616-225.44 11.8-205.65 9.7011-218.33 23.157-3.85 4.0857-7 8.3313-7 9.4346 0 1.1033-2.011 6.4188-4.4689 11.812l-4.4689 9.8064-1.5467 63.934c-0.85068 35.164-1.5397 80.748-1.5311 101.3l0.0162 37.364 4.8145 7.9697c8.6401 14.302 9.9789 14.945 37.39 17.944 32.563 3.5628 43.231 5.4078 44.082 7.6235 0.3895 1.015 0.0253 9.1708-0.80913 18.124-8.4548 90.706-8.575 93.943-3.6106 97.258 3.7089 2.4765 8.852 1.0006 11.545-3.3129zm15.922-122.13c0-28.931-0.0417-29.368-2.8871-30.271-1.5879-0.50399-19.61-3.1469-40.05-5.8731-20.44-2.7262-37.69-5.5043-38.335-6.1735-0.67435-0.70015 0.14064-42.184 1.9195-97.705 2.4404-76.167 3.47-96.833 4.8885-98.124 1.3274-1.2082 54.153-3.4728 202.1-8.664 110.17-3.8655 201.22-6.6784 202.33-6.2508 1.7936 0.68827 2.0236 15.809 2.0056 131.82-0.0107 72.073-0.51995 131.83-1.1305 132.79-0.89337 1.4088-29.453-2.0191-146.31-17.561-137.74-18.318-145.32-19.193-147.57-17.008-1.3044 1.2668-9.4574 13.337-18.118 26.823-8.6603 13.486-16.443 24.752-17.295 25.036-1.145 0.38168-1.5489-7.1375-1.5489-28.838zm37.436-88.098c3.457-3.457 3.8974-4.8179 3.8974-12.042 0-9.9929 1.648-11.026 9.8876-6.197 9.9263 5.8172 18.218 4.1592 20.28-4.0552 1.1836-4.716-1.3663-9.4258-6.8573-12.666-9.0872-5.3616-8.9329-9.8075 0.56895-16.392 5.8332-4.0424 7.4651-7.2036 6.2395-12.087-1.812-7.2196-9.9457-9.5566-18.273-5.2503-2.2123 1.144-5.6325 1.894-7.6005 1.6667-3.3336-0.38512-3.6255-0.94672-4.272-8.2188-0.57016-6.4142-1.3558-8.3748-4.4077-11-3.6653-3.1528-7.9539-3.985-12.18-2.3634-3.1443 1.2066-7.3856 10.294-7.3856 15.824 0 6.2442-2.6885 7.1798-10.177 3.5416-7.6667-3.7248-11.858-3.6168-15.883 0.40912-6.1942 6.1942-4.7067 9.5646 9.7273 22.039 1.65 1.426 3 3.2216 3 3.9903 0 0.76864-3.2243 3.4601-7.1651 5.981-10.177 6.5102-11.546 11.544-4.9375 18.153 4.8216 4.8216 9.5763 5.0094 16.759 0.66198 6.4757-3.9196 8.6771-2.7056 8.6771 4.7852 0 5.5228 4.0987 15.07 6.9643 16.222 4.5537 1.8308 9.4162 0.71951 13.138-3.0025zm97.333 0c3.457-3.457 3.8974-4.8179 3.8974-12.042 0-9.9929 1.648-11.026 9.8876-6.197 3.2563 1.9083 7.791 3.4697 10.077 3.4697 5.1765 0 10.702-5.1847 10.702-10.042 0-3.3032-1.4664-5.0529-11.667-13.921-1.65-1.4345-3-3.2897-3-4.1226 0-1.3484 4.7969-6.2696 12.133-12.448 3.7103-3.1244 3.1542-8.3843-1.3641-12.903-4.614-4.6139-7.6748-4.8501-14.925-1.1514-2.9604 1.5103-6.6865 2.5603-8.2802 2.3333-2.5014-0.35622-2.9925-1.48-3.5915-8.2181-0.57016-6.4142-1.3558-8.3748-4.4077-11-3.6631-3.1509-7.9538-3.985-12.172-2.3663-3.0864 1.1844-6.4658 8.1855-7.3233 15.172-0.8831 7.1948-3.9352 8.3348-10.918 4.0778-6.0203-3.6703-11.194-3.4907-15.213 0.52827-3.2008 3.2008-4.317 9.2002-2.2523 12.106 0.53877 0.7582 3.8587 3.7044 7.3776 6.547 7.9341 6.4092 7.8536 9.2663-0.39655 14.081-9.3997 5.4856-10.73 14.353-2.8507 19.007 5.2755 3.1163 9.1589 2.8655 15.448-0.99796 6.4344-3.9527 8.7345-2.6709 8.7345 4.8676 0 5.5228 4.0987 15.07 6.9643 16.222 4.5537 1.8308 9.4162 0.71951 13.138-3.0025zm95.971 1.1912c3.1925-1.7086 6.8204-8.4694 7.8491-14.627 0.9228-5.5239 4.3625-6.6332 10.587-3.4142 8.0694 4.1728 15.138 1.9356 16.972-5.3716 1.2279-4.8923-1.6072-10.037-8.2239-14.923-6.6192-4.8881-7.0408-6.0182-3.3918-9.0911 10.431-8.7843 12.133-10.991 12.133-15.733 0-5.679-3.794-10.133-8.631-10.133-1.8137 0-5.95 1.2886-9.1918 2.8636-7.1259 3.462-10.177 2.6492-10.177-2.7112 0-5.2684-4.5249-15.557-7.3125-16.627-3.0039-1.1527-10.332-1.0555-12.155 0.16125-3.006 2.0072-4.5329 7.0376-4.5329 14.934 0 10.096-1.499 10.906-10.092 5.4569-8.0309-5.093-11.725-5.133-16.677-0.18036-5.9518 5.9518-4.48 14.433 3.0455 17.55 2.1617 0.8954 4.8682 3.0593 6.0144 4.8087 2.0275 3.0943 1.8799 3.3707-5.4366 10.18-4.8883 4.5493-7.5207 8.062-7.5207 10.036 0 3.3805 2.2841 8.3392 4.5329 9.8408 3.0388 2.029 10.532 0.89937 16.246-2.4492 8.231-4.8237 9.8876-3.7924 9.8876 6.1551 0 6.8248 0.51606 8.6185 3.2727 11.375 3.4476 3.4476 8.5063 4.1984 12.801 1.8999z" fill="#8649f9"/>
  </g>
 </g>
</svg>
