<svg width="512" height="512" version="1.1" xmlns="http://www.w3.org/2000/svg" desc="Created with imagetracer.js version 1.2.5"><path d="M 382.5 122 Q 395.2 120.3 403.5 123 L 414 133.5 L 416 137.5 L 416 229.5 L 417 231.5 L 416 234.5 L 417 235.5 L 417 357.5 Q 412.8 367.3 405.5 374 Q 402 378.5 392.5 377 L 391.5 376 L 384.5 376 L 367.5 373 L 359.5 373 L 358.5 372 L 351.5 372 L 334.5 369 L 326.5 369 L 309.5 366 L 301.5 366 L 284.5 363 L 276.5 363 L 275.5 362 L 268.5 362 L 267.5 361 L 260.5 361 L 259.5 360 L 252.5 360 L 251.5 359 L 244.5 359 L 243.5 358 L 236.5 358 L 235.5 357 L 172.5 350 L 161 369.5 L 131 430.5 L 128.5 433 L 124.5 434 L 121 431.5 L 120 420.5 L 121 419.5 L 122 394.5 L 123 393.5 L 123 383.5 L 124 382.5 L 124 372.5 L 125 371.5 L 125 361.5 L 126 360.5 L 126 346.5 L 116.5 343 L 78.5 339 Q 71.5 337.4 68 332.5 L 61 320.5 L 61 288.5 L 62 287.5 L 62 223.5 L 63 222.5 L 63 181.5 L 64 180.5 L 64 168.5 L 70 156.5 L 70 153.5 L 79.5 142 L 90.5 138 L 109.5 137 L 110.5 136 L 160.5 134 L 161.5 133 L 179.5 133 L 180.5 132 L 198.5 132 L 199.5 131 L 217.5 131 L 218.5 130 L 237.5 130 L 238.5 129 L 256.5 129 L 257.5 128 L 275.5 128 L 276.5 127 L 295.5 127 L 296.5 126 L 315.5 126 L 316.5 125 L 381.5 123 L 382.5 122 Z M 364 149 L 363 150 L 332 150 L 331 151 L 303 151 L 302 152 L 272 152 L 271 153 L 188 155 L 187 156 L 159 156 L 158 157 L 134 157 L 133 158 L 111 158 L 110 159 L 93 159 L 88 160 L 86 162 L 86 171 L 85 172 L 84 220 L 83 221 L 83 252 L 82 253 L 82 294 L 81 295 Q 80 304 82 308 L 91 310 L 132 315 L 139 317 L 142 318 L 142 328 L 142 330 L 143 332 L 143 361 L 145 361 L 172 322 L 193 323 L 201 325 L 247 330 L 255 332 L 284 335 L 285 336 L 292 336 L 300 338 L 346 343 L 354 345 L 378 347 L 379 348 L 392 348 L 392 152 L 391 151 L 391 149 L 364 149 Z "></path><path d="M 161.5 207 Q 169.8 205.7 172 210.5 L 174 221.5 L 175.5 223 L 181.5 223 L 189.5 220 L 196 224.5 Q 197 231 193.5 233 L 186 239.5 L 186 242.5 L 191.5 248 L 195 250.5 L 196 257.5 Q 194.3 262.8 185.5 261 L 178.5 257 L 175.5 257 L 174 258.5 L 173 270.5 L 169.5 274 L 161.5 275 Q 155.5 269.2 156 258 Q 149 256.7 146.5 261 L 140.5 261 L 136 257.5 L 134 252.5 L 137.5 248 L 146 241.5 L 146 239.5 L 135 228.5 L 134 225.5 L 138.5 220 L 145.5 220 Q 147.8 223.8 154.5 223 L 156 221.5 L 158 211.5 L 161.5 207 Z "></path><path d="M 234.5 207 Q 242.8 205.7 245 210.5 L 247 221.5 L 248.5 223 Q 255.9 223.9 258.5 220 L 264.5 220 Q 269.9 221.6 269 229.5 L 259 239.5 L 259 242.5 L 270 254.5 L 266.5 260 L 258.5 261 L 251.5 257 L 248.5 257 L 247 258.5 L 246 270.5 L 242.5 274 L 234.5 275 Q 228.5 269.2 229 258 L 226.5 257 L 218.5 261 L 212.5 261 L 209 259 L 207 254.5 Q 208.4 248.4 213.5 246 L 218 242.5 L 218 239.5 L 210.5 232 L 208 230.5 L 207 227.5 L 210.5 221 L 218.5 220 L 222.5 223 L 227.5 223 L 229 221.5 L 231 211.5 L 234.5 207 Z "></path><path d="M 307.5 207 L 316.5 207 L 318 208.5 L 323.5 223 L 327.5 223 L 333.5 220 L 339.5 220 L 343 226.5 Q 341.8 232.3 337.5 235 L 332 239.5 Q 331.3 243.3 333.5 244 L 342 251.5 Q 343.5 259.5 338.5 261 L 331.5 261 Q 329.5 258 323.5 259 L 319 270.5 L 315.5 274 Q 308.3 275.3 306 271.5 L 304 264.5 L 304 258.5 L 302.5 257 L 299.5 257 L 292.5 261 L 284.5 261 Q 281 259 282 252.5 L 292 241.5 L 292 239.5 L 283 232.5 L 282 225.5 L 285.5 221 L 292.5 220 L 302.5 225 L 304 223.5 L 305 210.5 L 307.5 207 Z "></path></svg>