<svg width="512" height="512" version="1.1" xmlns="http://www.w3.org/2000/svg" desc="Created with imagetracer.js version 1.2.5"><path d="M 406.5 114 L 412.5 115 L 420 122.5 L 423 132.5 L 423 244.5 L 422 245.5 L 422 349.5 Q 419.9 359.9 412.5 365 L 405.5 366 L 396.5 364 L 377.5 363 L 360.5 360 L 350.5 360 L 349.5 359 L 341.5 359 L 332.5 357 L 296 354 L 295.5 352 L 287.5 352 L 286.5 351 L 276.5 351 L 259.5 348 L 239.5 347 L 223.5 344 L 203.5 343 L 195.5 341 L 174.5 339 L 169 348.5 L 168 353.5 L 157 374.5 L 156 379.5 L 146 400.5 L 134 424.5 L 131.5 427 L 128 424.5 L 129 407.5 L 130 406.5 L 130 394.5 L 131 393.5 L 132 367.5 L 133 366.5 L 133 354.5 L 134 353.5 L 134 340.5 L 135 335 L 122.5 333 L 114.5 333 L 113.5 332 L 95.5 331 L 93.5 329 L 80.5 328 L 74 322.5 Q 66.5 313 69 293.5 L 70 292.5 L 70 267.5 L 71 266.5 L 71 245.5 L 72 244.5 L 72 222.5 L 73 221.5 L 73 196.5 L 74 195.5 L 75 154.5 L 78 142.5 L 86.5 133 Q 90 130.5 97.5 132 L 98.5 131 L 120.5 131 L 121.5 130 L 137.5 130 L 138.5 129 L 153.5 129 L 154.5 128 L 176.5 128 L 177.5 127 L 196.5 127 L 197.5 126 L 213.5 126 L 214.5 125 L 230.5 125 L 231.5 124 L 271.5 123 L 273.5 121 L 307.5 120 L 308.5 119 L 330.5 119 L 331.5 118 L 348.5 118 L 349.5 117 L 383.5 116 L 384.5 115 L 405.5 115 L 406.5 114 Z M 389 134 L 388 135 L 319 137 L 318 138 L 288 138 L 287 139 L 264 139 L 263 140 L 243 140 L 242 141 L 188 142 L 185 144 L 163 144 L 162 145 L 141 145 L 140 146 L 88 147 L 85 152 L 85 172 L 84 173 L 83 232 L 82 233 L 82 267 L 81 268 L 81 303 L 86 305 L 95 305 L 110 308 L 118 308 L 120 310 L 142 312 L 148 317 L 146 346 L 145 347 L 145 358 L 143 361 L 143 372 L 142 373 Q 141 377 144 376 L 149 365 L 152 362 L 165 338 L 170 326 L 177 317 L 200 319 L 208 321 L 217 321 L 232 324 L 240 324 L 241 325 L 250 325 L 265 328 L 297 331 L 299 333 L 307 333 L 323 336 L 330 336 L 331 337 L 348 338 L 355 340 L 372 341 L 387 344 L 403 345 L 406 339 L 407 137 L 405 134 L 389 134 Z "></path><path d="M 168.5 199 Q 174.3 198.2 176 201.5 L 176 221.5 L 177.5 222 L 192.5 213 L 197.5 213 L 201 218.5 L 196.5 224 L 183 231 Q 181.9 233.7 184.5 233 L 200 243.5 L 201 245.5 L 197.5 251 L 192.5 251 L 178.5 242 L 176 242 L 176 262.5 L 173.5 265 Q 167.7 265.8 166 262.5 L 166 242.5 L 163.5 242 L 149.5 251 L 144.5 251 L 141 245.5 L 145.5 240 L 159 232.5 Q 159.8 230.3 157.5 231 L 142 220.5 L 141 218.5 L 144.5 213 L 149.5 213 L 163.5 222 L 166 222 L 166 202.5 L 168.5 199 Z "></path><path d="M 242.5 199 Q 248.3 198.2 250 201.5 L 250 221.5 L 251.5 222 L 266.5 213 L 271.5 213 L 275 218.5 L 270.5 224 L 257 231 Q 255.9 233.7 258.5 233 L 274 243.5 L 275 245.5 L 271.5 251 L 266.5 251 L 252.5 242 L 250 242 L 250 262.5 L 247.5 265 Q 241.7 265.8 240 262.5 L 240 242.5 L 237.5 242 L 223.5 251 L 218.5 251 L 215 245.5 L 219.5 240 L 233 232.5 Q 233.8 230.3 231.5 231 L 216 220.5 L 215 218.5 L 218.5 213 L 223.5 213 L 237.5 222 L 240 222 L 240 202.5 L 242.5 199 Z "></path><path d="M 317.5 199 Q 323.3 198.2 325 201.5 L 325 221.5 L 326.5 222 L 341.5 213 L 346.5 213 L 350 218.5 L 345.5 224 L 332 231 Q 330.9 233.7 333.5 233 L 349 243.5 L 350 245.5 L 346.5 251 L 341.5 251 L 327.5 242 L 325 242 L 325 262.5 L 322.5 265 Q 316.7 265.8 315 262.5 L 315 242.5 L 312.5 242 L 298.5 251 L 293.5 251 L 290 245.5 L 294.5 240 L 308 232.5 Q 308.8 230.3 306.5 231 L 291 220.5 L 290 218.5 L 293.5 213 L 298.5 213 L 312.5 222 L 315 222 L 315 202.5 L 317.5 199 Z "></path></svg>